<svg width="181" height="67" viewBox="0 0 181 67" fill="none" xmlns="http://www.w3.org/2000/svg">
<path d="M28.6918 21.3545C29.0881 21.2413 29.4844 21.1847 29.8808 21.0714C31.3529 20.7883 32.825 20.6185 34.2405 20.6751C34.5236 20.6751 34.8634 20.6751 35.1465 20.7317C36.3921 20.9582 37.6944 21.0148 38.94 21.2979C42.6769 22.2605 45.055 24.5819 46.1874 28.0923C46.697 29.5645 46.8668 31.1498 46.9234 32.7918C46.9234 34.8301 46.3572 36.8685 45.4513 38.9068L44.4888 40.7186C42.96 43.4364 40.8651 45.8144 38.5437 48.0226C35.0898 51.25 31.2963 53.9111 27.0498 55.723C25.3512 56.459 23.5959 57.0252 21.8407 57.4782C20.4818 57.8179 19.0663 58.2142 17.7075 58.4407C15.4993 58.7238 13.3477 58.7238 11.366 58.3275C10.0071 58.101 8.70485 57.7613 7.45921 57.3083C5.70398 56.6289 4.28848 55.6097 3.15608 54.2508C2.19354 53.1751 1.45747 51.9294 0.947893 50.5705C0.325071 48.8719 0.155211 46.9468 0.325071 45.0218C0.381691 43.6062 0.778032 42.1907 1.40085 40.7752C1.57071 40.4355 1.62733 40.1524 1.62733 39.8127C1.62733 37.1516 2.0803 34.4904 2.9296 31.8293C3.66566 29.6211 4.45834 27.4129 5.53412 25.2047C7.40259 21.4678 9.78063 17.9573 12.6116 14.6167C13.6308 13.4277 14.65 12.2387 15.839 11.1063C16.0655 10.8798 16.1787 10.6533 16.2353 10.3702C16.4618 9.40769 16.6883 8.44514 16.9148 7.4826C17.3111 5.95386 17.7641 4.3685 18.3869 2.89637C18.5568 2.38679 18.7832 1.87721 19.123 1.42425C19.5193 0.801426 19.859 0.688183 20.4252 0.971287C20.9348 1.25439 21.501 1.48087 22.1238 1.65073C22.7466 1.82059 22.8033 1.93383 22.5768 2.61327C22.2937 3.63243 22.1238 4.59497 21.8407 5.61414C21.8407 5.67076 21.7841 5.784 21.7841 5.84062C21.7841 5.95386 21.8407 6.01048 22.0106 5.95386C22.0672 5.89724 22.1804 5.784 22.2937 5.72738C23.9357 4.59497 25.6343 3.63243 27.4461 2.95299C28.9749 2.38679 30.447 1.99045 31.9757 1.99045C32.8816 1.99045 33.731 2.10369 34.5236 2.44341C34.8634 2.55665 35.2597 2.66989 35.656 2.78313C36.6186 3.06623 37.4679 3.46257 38.2039 4.08539C39.393 5.16118 39.8459 6.68992 39.393 8.50176C38.9966 10.257 38.2606 12.0122 37.0715 13.5976C36.2222 14.73 35.2597 15.7491 34.2405 16.7683C32.6552 18.2404 31.0132 19.6559 29.2013 20.845C29.0315 20.9582 28.8616 21.1281 28.6918 21.2413C28.6918 21.2979 28.6918 21.2979 28.6918 21.3545ZM2.25016 43.2665C2.19354 43.6062 2.0803 43.8327 2.0803 44.0592C2.02368 44.4555 1.96706 44.8519 1.91043 45.1916C1.57071 49.2116 2.98622 52.3257 5.81722 54.5339C8.25189 56.4024 11.366 57.1951 14.7632 57.3649C15.7824 57.4216 16.8582 57.3649 17.9339 57.2517C19.4061 57.0818 20.8782 56.8554 22.2937 56.3458C24.3886 55.6097 26.427 54.6472 28.352 53.4015C30.8999 51.8728 33.2214 50.0043 35.3729 47.966C37.6377 45.7578 39.5628 43.3231 41.0349 40.6054C41.2614 40.0958 41.2614 40.0958 40.8085 40.0392C39.3363 39.8127 37.9775 39.4164 36.6186 38.9634C34.0707 38.1141 31.8059 36.8685 29.4844 35.6228C27.2196 34.4904 24.8982 33.4146 22.3503 32.7352C20.4252 32.2256 18.5001 31.8859 16.3486 32.2256C15.839 32.2822 15.839 32.2822 15.6691 32.7352C15.386 33.6977 15.1029 34.6036 14.7632 35.5662C14.0271 37.4347 13.2345 39.3031 12.1587 41.1716C11.4226 42.4172 10.5733 43.6629 9.44091 44.682C8.47837 45.588 7.45921 46.0409 6.32681 45.9843C6.0437 45.9843 5.7606 45.9843 5.4775 45.9843C4.79806 46.0409 4.28848 45.8144 3.83552 45.4747C3.43918 45.135 3.09946 44.7387 2.81636 44.2857C2.6465 44.0026 2.47664 43.6629 2.25016 43.2665ZM42.9034 35.4529C43.2431 34.2073 43.3564 32.9617 43.1865 31.7726C42.8468 29.6211 42.0541 27.6394 40.9217 25.8841C39.8459 24.2988 38.487 23.0531 36.6186 22.3171C36.3355 22.2038 35.9958 22.0906 35.5994 22.0906C33.9574 22.034 32.2588 22.2038 30.5602 22.5436C28.0123 23.0531 25.5777 24.0157 23.0864 25.0348C21.7275 25.6577 20.312 26.3371 19.0097 27.0732C18.7832 27.1864 18.6134 27.3563 18.3869 27.2996C18.1038 27.243 17.8207 27.1864 17.5942 27.1298C17.3677 27.0732 17.3677 26.9033 17.481 26.7334C17.5376 26.5636 17.6508 26.4503 17.8207 26.3371C18.1604 26.1106 18.5001 25.8841 18.8965 25.6577C19.859 25.0915 20.8216 24.412 21.7275 23.676C23.143 22.5436 24.5585 21.3545 25.974 20.1655C27.5594 18.75 29.1447 17.3911 30.6168 15.9756C31.8625 14.7866 33.0515 13.541 34.0141 12.1255C34.9766 10.6533 35.7127 9.18121 35.9391 7.65246C36.109 6.3502 35.8825 5.2178 35.0332 4.3685C34.7501 4.08539 34.4104 3.91553 33.9574 3.91553C31.6926 3.85891 29.3712 4.42511 27.1064 5.44428C25.1813 6.3502 23.3128 7.42598 21.501 8.67162C21.1613 8.95472 20.9914 9.18121 20.9348 9.52093C20.7083 10.7099 20.4252 11.899 20.1987 13.088C19.9156 14.6734 19.5193 16.2021 19.1796 17.7875C18.6134 20.6185 18.0472 23.5061 17.3677 26.3371C17.0846 27.4695 16.8582 28.6019 16.5184 29.7343C16.4052 30.1307 16.2919 30.527 16.2353 30.9233C16.1221 31.2064 16.1787 31.2631 16.5184 31.2064C16.8015 31.2064 17.0846 31.1498 17.3677 31.2064C18.0472 31.2064 18.7832 31.2631 19.5193 31.2631C20.4252 31.2631 21.2745 31.3763 22.1804 31.4895C24.332 31.8293 26.3137 32.4521 28.2388 33.3014C30.0506 34.0941 31.7492 35 33.5045 35.9625C35.4296 36.9817 37.4113 37.9442 39.5628 38.6237C40.129 38.8502 40.6952 39.02 41.318 39.1333C41.5445 39.1899 41.7144 39.1333 41.8276 38.9068C41.8842 38.7369 41.9409 38.6237 41.9975 38.5104C42.3372 37.4913 42.6769 36.4721 42.9034 35.4529ZM2.98622 38.0009C3.26932 37.6611 3.38256 37.4913 3.55242 37.2648C4.40172 36.2456 5.30764 35.3397 6.38343 34.6036C8.02541 33.4146 9.78063 32.6219 11.5925 32.0557C12.1587 31.8293 12.1587 31.8293 12.2719 31.2631C12.3285 31.2631 12.3285 31.2064 12.3285 31.1498C12.555 29.7343 12.8381 28.2622 13.0646 26.8467C13.2911 25.2613 13.5742 23.676 13.8573 22.0906C14.2536 20.0523 14.5933 17.9573 15.0463 15.919C15.1595 15.2962 15.2728 14.73 15.386 14.1072C15.386 14.0505 15.386 13.9939 15.2728 13.9939C14.9897 14.277 14.65 14.6167 14.3669 14.9565C10.6866 18.8632 7.91217 23.1664 5.7606 27.8092C4.6282 30.3005 3.72228 32.7918 3.26932 35.3397C3.15608 36.189 3.04284 37.0383 2.98622 38.0009ZM11.4226 35.2265C11.4792 34.8867 11.6491 34.3205 11.7623 33.6977C11.819 33.4146 11.7623 33.358 11.4226 33.4712C11.3094 33.5279 11.1961 33.5845 11.0829 33.6411C9.89387 34.0941 8.76147 34.7735 7.68569 35.5096C5.81722 36.8685 4.3451 38.5671 3.32594 40.5488C3.2127 40.7752 3.15608 41.0017 3.2127 41.2282C3.4958 42.5871 4.11862 43.7761 5.1944 44.682C5.81722 45.1916 6.15695 45.135 6.94963 44.3989C8.13865 43.3231 8.98795 41.9643 9.66739 40.5488C10.4035 38.9068 10.9697 37.1516 11.4226 35.2265ZM67.4673 37.4347C67.8636 37.378 68.1467 37.2648 68.4864 37.2082C70.5247 36.5854 72.5065 35.9059 74.5448 35.1132C75.0544 34.8867 75.6206 34.6603 76.1301 34.3205C76.2434 34.2639 76.3566 34.2073 76.4699 34.1507C76.6397 34.1507 76.8096 34.1507 76.8096 34.3205C76.8662 34.4904 76.753 34.547 76.5831 34.6603C76.0735 35.0566 75.5073 35.2831 74.9411 35.5662C72.5065 36.5287 70.0718 37.4347 67.6371 38.0575C67.2974 38.1707 67.1842 38.3406 67.0143 38.6237C65.5988 41.7378 63.334 44.1158 60.2765 45.8144C58.7478 46.6071 57.2756 46.8336 55.8601 46.4939C55.1807 46.3806 54.4446 46.324 53.8218 46.0409C52.01 45.3049 50.7643 44.0026 50.0849 42.1907C49.7452 41.0583 49.8018 39.7561 50.1981 38.4538C50.7643 36.3022 51.9533 34.3205 53.5953 32.5653C54.2748 31.7726 55.0675 31.0932 55.9734 30.5836C56.8227 30.0174 57.7286 29.6777 58.6345 29.7343C59.1441 29.7343 59.5404 29.9608 59.8802 30.2439C60.2199 30.4704 60.2199 30.4704 60.5596 30.1873C62.0883 28.885 63.8436 28.7718 65.2591 29.4512C67.4673 30.527 68.1467 32.5087 67.9768 35.1132C67.9202 35.8493 67.7504 36.5854 67.4673 37.4347ZM58.9742 32.7918C58.9742 32.7918 58.9176 32.7918 58.861 32.7918C58.861 32.7918 58.8044 32.8484 58.7478 32.905C56.5962 34.6603 54.8976 36.642 53.935 39.1333C52.8593 41.851 53.7086 44.4555 55.9734 45.5313C56.4263 45.7012 56.8793 45.7578 57.3323 45.7012C57.6154 45.6446 57.9551 45.5313 58.2382 45.4747C61.7486 44.2857 64.2399 41.851 66.0518 38.6803C66.165 38.3972 66.165 38.3406 65.8253 38.3406C65.4856 38.284 65.0892 38.3406 64.7495 38.284C62.9376 37.9442 61.3523 37.2648 60.1066 36.0758C59.3706 35.2831 58.9742 34.3205 59.0309 33.1315C59.0309 33.0183 59.0875 32.8484 58.9742 32.7918ZM65.3723 37.6611C65.5988 37.6611 65.8253 37.6611 66.0518 37.6611C66.5047 37.6611 66.5047 37.6045 66.6746 37.2082C67.0709 36.189 67.1275 35.1698 67.1275 34.1507C67.1275 32.8484 66.7312 31.7726 65.9951 30.8667C65.7687 30.5836 65.4289 30.3571 65.0326 30.3005C64.5796 30.2439 64.1267 30.2439 63.6171 30.4138C62.145 30.8101 60.8993 32.1124 60.7295 33.4146C60.6728 33.8676 60.7295 34.2639 60.8993 34.6603C61.6354 36.5287 63.1075 37.6045 65.3723 37.6611ZM82.9768 29.2814C83.6562 29.2247 84.2224 29.4512 84.732 29.7343C85.0717 29.9042 85.4114 30.074 85.7511 30.2439C86.2041 30.4704 86.6004 30.7535 86.8835 31.2064C87.563 32.3388 87.11 33.6977 86.4306 34.6603C86.1475 35.0566 86.0909 35.0566 85.7511 34.8867C85.2982 34.7169 85.2416 34.4338 85.3548 33.9808C85.6379 33.0749 85.6379 32.2256 85.2416 31.4895C85.0717 31.2064 84.9018 31.0932 84.5621 31.1498C84.3923 31.1498 84.2224 31.1498 84.0525 31.2064C82.5804 31.6028 81.1649 32.2822 79.9759 33.4712C79.2398 34.2073 78.9001 35.0566 78.7869 35.9625C78.617 37.0949 78.7302 38.1707 79.0133 39.1899C79.2964 40.3789 79.7494 41.5679 80.2024 42.7003C80.3156 42.9834 80.3156 43.04 80.712 42.8136C81.5046 42.4738 82.2407 42.0209 83.0334 41.5679C86.0909 39.7561 89.0917 37.9442 92.036 35.8493C92.7154 35.3963 93.3949 34.8867 94.0177 34.2639C94.1309 34.0941 94.2442 33.9808 94.4706 34.0374C94.7537 34.0941 94.8104 34.2639 94.5839 34.547C94.3574 34.8301 94.0743 35.0566 93.7912 35.2831C92.6022 36.3022 91.3565 37.1516 90.1109 38.0009C87.7895 39.5862 85.468 41.0017 83.1466 42.4738C82.4672 42.8702 81.7311 43.2665 80.9951 43.6062C80.5987 43.8327 80.5987 43.8327 80.712 44.1724C81.0517 45.0218 81.3914 45.8711 81.6179 46.777C82.2973 49.2116 82.4106 51.8162 82.0708 54.4773C81.6745 57.1385 80.5421 59.6864 78.5038 61.8946C76.4088 64.216 73.9175 65.6315 71.0299 66.0278C70.8034 66.0844 70.5769 66.1411 70.3505 66.1411C66.3304 66.8771 62.7067 64.5557 62.8766 59.9128C62.9332 57.9878 63.6693 56.1193 64.6885 54.3641C65.7642 52.4956 67.2364 50.9669 68.8217 49.4947C70.6336 47.8528 72.6153 46.6637 74.7102 45.6446C75.333 45.3615 75.8992 45.135 76.5221 44.8519C76.9184 44.682 76.9184 44.6254 76.8052 44.2857C76.4654 43.3798 76.1823 42.5305 75.9559 41.6245C75.6728 40.5488 75.5029 39.473 75.333 38.3406C75.2764 37.4347 75.2764 36.5287 75.4463 35.5662C75.786 33.6411 76.8052 31.9991 78.617 30.8101C80.0325 29.9042 81.448 29.338 82.9768 29.2814ZM64.2921 57.9878C64.1789 58.554 64.0656 59.0635 64.0656 59.5731C64.009 61.385 64.5186 62.9137 65.7642 63.9895C66.7834 64.8954 68.1423 65.2918 69.671 65.405C70.0674 65.405 70.5203 65.3484 70.9733 65.1785C73.1815 64.3292 75.1066 62.9703 76.4654 60.932C77.7677 58.9503 78.4471 56.912 78.6736 54.8737C78.9567 51.6463 78.5604 48.6454 77.428 45.8711C77.3147 45.5313 77.2581 45.4747 76.8052 45.7012C75.8426 46.2108 74.8801 46.7204 73.9175 47.2299C71.3696 48.5888 69.1048 50.344 67.2364 52.6088C65.8209 54.2508 64.7451 56.0061 64.2921 57.9878ZM103.043 40.3223C102.59 40.7186 102.137 41.115 101.684 41.5113C100.778 42.3606 99.8726 43.0967 98.91 43.8327C98.4004 44.2291 97.8342 44.5688 97.268 44.7953C96.6452 45.0784 96.0224 45.2482 95.3996 45.1916C95.0598 45.135 94.7767 45.135 94.437 45.135C92.7384 45.2482 91.7759 44.3989 91.3795 42.9268C91.1531 42.0775 91.1531 41.1716 91.3229 40.2657C91.8891 37.2082 93.3046 34.4338 95.7959 32.0557C97.0982 30.8101 98.5703 29.9042 100.269 29.5078C101.288 29.2814 102.251 29.338 103.1 29.7343C103.553 29.9042 104.006 30.074 104.515 30.1873C105.138 30.3571 105.704 30.6402 106.157 31.0366C106.724 31.4329 107.12 31.9991 107.29 32.6786C107.346 32.9617 107.46 33.0749 107.743 33.1315C108.139 33.2448 108.535 33.4146 108.988 33.5279C109.385 33.6411 109.498 33.811 109.328 34.2639C108.875 35.3397 108.366 36.4155 107.856 37.4913C106.78 39.6995 105.704 41.9076 104.629 44.1158C104.629 44.1724 104.572 44.2857 104.515 44.3989C104.629 44.4555 104.742 44.3423 104.855 44.2857C106.497 43.4364 108.082 42.4172 109.611 41.2848C111.876 39.6428 114.084 37.8876 116.236 36.0758C117.028 35.4529 117.765 34.8301 118.444 34.0941C118.501 34.0374 118.557 33.9808 118.614 33.9242C118.784 33.811 118.954 33.811 119.067 33.9242C119.18 34.0374 119.123 34.1507 119.01 34.2639C118.67 34.7735 118.217 35.1698 117.765 35.6228C114.707 38.284 111.536 40.8319 108.196 43.1533C107.007 43.946 105.761 44.682 104.459 45.3615C104.062 45.5313 103.779 45.7578 103.666 46.1542C103.553 46.3806 103.44 46.6071 103.326 46.8336C103.157 47.2866 103.157 47.2866 103.496 47.513C104.346 48.0792 104.968 48.9285 105.365 49.8345C105.761 50.6271 105.874 51.5331 105.988 52.3824C106.214 53.8545 106.157 55.3832 105.931 56.912C105.818 57.8745 105.704 58.8371 105.478 59.7996C105.195 60.8754 104.799 61.8946 104.176 62.8571C103.723 63.6498 103.1 64.3292 102.364 64.8954C101.741 65.405 101.062 65.6315 100.326 65.6881C100.042 65.6881 99.7593 65.7447 99.4196 65.7447C98.4571 65.858 97.7776 65.4616 97.268 64.8388C96.8717 64.3858 96.6452 63.8196 96.4753 63.2534C96.1356 61.9512 96.1356 60.5923 96.2489 59.2334C96.3621 57.3649 96.7018 55.5531 97.268 53.6846C97.7776 51.9294 98.4571 50.1742 99.1931 48.4756C99.2497 48.3057 99.363 48.1359 99.4196 47.966C99.4762 47.6829 99.4762 47.6263 99.1931 47.7395C98.6835 47.8528 98.174 47.966 97.721 48.0792C96.7018 48.2491 95.8525 48.0792 94.9466 47.8528C94.89 47.8528 94.7767 47.7961 94.7201 47.7395C94.4936 47.6263 94.3238 47.4564 94.3804 47.1167C94.437 46.777 94.6635 46.5505 95.0032 46.3806C95.626 46.1542 96.1922 46.0409 96.7584 46.0409C97.7776 45.9843 98.6835 45.9843 99.5895 46.1542C100.099 46.2674 100.156 46.2108 100.382 45.7578C101.231 44.0592 102.081 42.3606 102.93 40.662C102.987 40.5488 103.1 40.4355 103.043 40.3223ZM94.7767 40.7186C94.6069 41.3414 94.5503 42.0209 94.6635 42.6437C94.7201 43.1533 94.8334 43.6629 95.1731 44.0026C95.3996 44.2291 95.6827 44.3423 96.0224 44.2291C97.0415 43.8893 98.0041 43.3798 98.8534 42.7003C100.778 41.2282 102.534 39.6428 104.176 37.8876C104.289 37.7744 104.402 37.6611 104.515 37.5479C104.912 36.7552 105.365 36.0191 105.761 35.2831C105.818 35.1698 105.874 35.0566 105.761 34.9434C105.421 34.7735 105.421 34.3772 105.308 34.0374C105.082 33.3014 104.742 32.6786 104.289 32.0557C103.949 31.6028 103.44 31.4895 102.76 31.6028C101.628 31.8293 100.609 32.4521 99.6461 33.1881C98.4571 34.0941 97.5511 35.2265 96.7584 36.4721C95.8525 37.831 95.1731 39.2465 94.7767 40.7186ZM99.4196 57.1951C99.1365 58.4407 98.91 59.3466 98.7968 60.3092C98.6835 61.5548 98.7402 62.7439 99.2497 63.8196C99.4196 64.1594 99.6461 64.4425 99.9292 64.6689C100.212 64.8388 100.495 64.8388 100.835 64.6123C101.571 64.216 102.137 63.5932 102.59 62.9137C103.27 61.8946 103.779 60.8188 104.062 59.743C104.459 58.3275 104.685 56.8554 104.855 55.4399C104.968 53.8545 104.912 52.2691 104.459 50.8536C104.176 49.9477 103.779 49.2116 103.157 48.5888C102.817 48.1359 102.704 48.1925 102.477 48.7587C102.307 49.155 102.137 49.5514 101.968 49.9477C100.892 52.439 99.9292 54.9303 99.4196 57.1951ZM99.1931 46.777C98.6269 46.7204 98.0041 46.7204 97.3813 46.777C97.0415 46.777 96.6452 46.8902 96.3055 47.0035C96.1922 47.0035 95.9658 47.0601 95.9658 47.2299C95.9091 47.3998 96.1356 47.3998 96.2489 47.3998C96.3621 47.3998 96.4753 47.3998 96.532 47.3998C97.4379 47.3432 98.3438 47.1167 99.1931 46.777ZM132.577 34.3772C132.464 34.3772 132.407 34.4904 132.351 34.547C131.332 35.8493 130.369 37.1516 129.407 38.3972C128.671 39.3597 127.934 40.2657 127.255 41.1716C126.519 42.0775 125.783 42.9268 124.99 43.7195C124.254 44.4555 123.461 45.135 122.612 45.6446C122.216 45.8144 121.819 45.9277 121.48 45.9277C120.914 45.9277 120.404 45.9277 119.838 45.9843C119.272 46.0975 118.762 45.9277 118.422 45.588C117.743 45.0784 117.347 44.3989 117.12 43.6062C116.724 42.1341 116.724 40.5488 117.007 38.8502C117.46 36.2456 118.309 33.6411 119.555 31.0932C119.781 30.6402 120.008 30.2439 120.347 29.7909C120.63 29.4512 120.8 29.3946 121.14 29.5078C121.763 29.7343 122.386 29.8476 123.009 29.9042C123.518 29.9608 123.575 30.1307 123.461 30.6969C123.292 31.5462 122.952 32.3955 122.669 33.3014C122.216 34.4904 121.819 35.736 121.423 36.9817C121.14 38.0009 120.8 38.9634 120.687 39.9826C120.461 41.2282 120.347 42.4738 120.574 43.6062C120.63 43.946 120.744 44.2291 120.914 44.4555C121.14 44.8519 121.367 44.8519 121.876 44.6254C123.178 43.946 124.367 42.9834 125.387 41.9076C127.425 39.7561 129.237 37.4913 130.935 35.1698C132.124 33.5845 133.313 31.9425 134.333 30.2439C134.502 29.9608 134.729 29.6777 134.955 29.3946C135.238 29.0549 135.295 28.9983 135.691 29.0549C136.088 29.1681 136.484 29.2247 136.937 29.2814C137.447 29.2814 137.617 29.5078 137.503 30.074C137.333 30.8667 137.05 31.6594 136.711 32.4521C136.088 34.1507 135.408 35.7927 134.786 37.4347C133.993 39.473 133.483 41.4547 133.313 43.493C133.313 43.946 133.37 44.3423 133.653 44.6254C133.88 44.9085 134.049 44.9085 134.446 44.7387C135.352 44.2291 136.088 43.5496 136.824 42.8136C137.617 41.9643 138.409 41.115 139.145 40.2657C139.881 39.5296 140.504 38.7369 141.184 38.0009C142.203 36.9251 143.165 35.7927 143.958 34.6036C144.071 34.4904 144.184 34.3772 144.298 34.3772C144.411 34.3205 144.524 34.3205 144.581 34.3772C144.694 34.4338 144.637 34.547 144.581 34.6603C144.411 35 144.184 35.3397 143.901 35.6228C143.052 36.7552 142.09 37.831 141.127 38.9068C139.711 40.4921 138.296 42.1907 136.824 43.7195C136.371 44.2291 135.861 44.6254 135.352 45.0218C134.446 45.7012 133.54 45.7578 132.577 45.7578C132.068 45.7578 131.728 45.4181 131.445 45.0784C131.162 44.7387 130.992 44.2857 130.879 43.7761C130.765 42.5305 130.879 41.2848 130.992 40.0392C131.162 38.284 131.785 36.5287 132.464 34.8301C132.521 34.6603 132.577 34.547 132.577 34.3772ZM149.065 38.284C147.876 38.284 146.913 37.9442 146.121 37.2648C145.611 36.7552 145.611 36.7552 145.158 37.4913C144.252 38.8502 143.686 40.2657 143.743 41.7378C143.799 43.0967 144.422 44.0026 145.498 44.6254C146.007 44.9085 146.687 44.7953 147.31 44.7387C148.555 44.5688 149.688 44.1158 150.82 43.493C152.009 42.8136 153.141 42.1341 154.217 41.2848C156.765 39.2465 159.256 37.0949 161.578 34.7735C161.804 34.547 161.974 34.3205 162.201 34.0941C162.371 33.9242 162.484 33.9242 162.654 33.9808C162.824 34.0941 162.767 34.2639 162.654 34.4338C162.54 34.6036 162.371 34.7735 162.201 35C161.125 36.189 159.879 37.2648 158.69 38.3972C157.331 39.6428 155.916 40.9451 154.444 42.1341C152.802 43.493 150.99 44.6254 149.008 45.3049C147.649 45.7578 146.347 45.8711 145.158 45.4181C144.535 45.2482 143.912 45.135 143.346 44.7953C141.591 43.7195 140.912 42.0209 141.195 39.8127C141.421 37.8876 142.384 36.1324 143.629 34.4338C144.932 32.6786 146.517 31.2064 148.442 30.1307C149.688 29.4512 150.933 28.9416 152.236 28.8284C153.141 28.7718 153.934 28.9416 154.557 29.4512C155.01 29.7909 155.406 30.1307 155.859 30.4138C156.256 30.6969 156.482 31.0932 156.595 31.6028C156.709 32.0557 156.652 32.4521 156.482 32.905C155.35 35.736 152.292 37.7744 150.084 38.2273C149.744 38.284 149.405 38.284 149.065 38.284ZM148.272 36.6986C150.48 36.5287 152.349 35.5096 153.878 33.6977C154.387 33.0749 154.614 32.3955 154.614 31.6594C154.67 31.2064 154.557 31.1498 154.104 31.0932C153.425 31.0932 152.745 31.3197 152.066 31.6028C149.971 32.5087 148.159 33.9242 146.574 35.6228C146.234 35.9625 146.234 36.0758 146.574 36.2456C146.63 36.3589 146.8 36.4155 146.913 36.4721C147.31 36.642 147.819 36.6986 148.272 36.6986ZM168.847 29.2814C169.526 29.2247 170.093 29.4512 170.602 29.7343C170.942 29.9042 171.282 30.074 171.621 30.2439C172.074 30.4704 172.471 30.7535 172.754 31.2064C173.433 32.3388 172.98 33.6977 172.301 34.6603C172.018 35.0566 171.961 35.0566 171.621 34.8867C171.168 34.7169 171.112 34.4338 171.225 33.9808C171.508 33.0749 171.508 32.2256 171.112 31.4895C170.942 31.2064 170.772 31.0932 170.432 31.1498C170.262 31.1498 170.093 31.1498 169.923 31.2064C168.451 31.6028 167.035 32.2822 165.846 33.4712C165.11 34.2073 164.77 35.0566 164.657 35.9625C164.487 37.0949 164.6 38.1707 164.884 39.1899C165.167 40.3789 165.62 41.5679 166.073 42.7003C166.186 42.9834 166.186 43.04 166.582 42.8136C167.375 42.4738 168.111 42.0209 168.904 41.5679C171.961 39.7561 174.962 37.9442 177.906 35.8493C178.586 35.3963 179.265 34.8867 179.888 34.2639C180.001 34.0941 180.114 33.9808 180.341 34.0374C180.624 34.0941 180.681 34.2639 180.454 34.547C180.228 34.8301 179.944 35.0566 179.661 35.2831C178.472 36.3022 177.227 37.1516 175.981 38.0009C173.66 39.5862 171.338 41.0017 169.017 42.4738C168.337 42.8702 167.601 43.2665 166.865 43.6062C166.469 43.8327 166.469 43.8327 166.582 44.1724C166.922 45.0218 167.262 45.8711 167.488 46.777C168.167 49.2116 168.281 51.8162 167.941 54.4773C167.545 57.1385 166.412 59.6864 164.374 61.8946C162.279 64.216 159.788 65.6315 156.9 66.0278C156.674 66.0844 156.447 66.1411 156.221 66.1411C152.201 66.8771 148.577 64.5557 148.747 59.9128C148.803 57.9878 149.539 56.1193 150.559 54.3641C151.634 52.4956 153.107 50.9669 154.692 49.4947C156.504 47.8528 158.485 46.6637 160.58 45.6446C161.203 45.3615 161.769 45.135 162.392 44.8519C162.789 44.682 162.789 44.6254 162.675 44.2857C162.336 43.3798 162.053 42.5305 161.826 41.6245C161.543 40.5488 161.373 39.473 161.203 38.3406C161.147 37.4347 161.147 36.5287 161.316 35.5662C161.656 33.6411 162.675 31.9991 164.487 30.8101C165.903 29.9042 167.318 29.338 168.847 29.2814ZM150.162 57.9878C150.049 58.554 149.936 59.0635 149.936 59.5731C149.879 61.385 150.389 62.9137 151.634 63.9895C152.654 64.8954 154.012 65.2918 155.541 65.405C155.938 65.405 156.391 65.3484 156.843 65.1785C159.052 64.3292 160.977 62.9703 162.336 60.932C163.638 58.9503 164.317 56.912 164.544 54.8737C164.827 51.6463 164.431 48.6454 163.298 45.8711C163.185 45.5313 163.128 45.4747 162.675 45.7012C161.713 46.2108 160.75 46.7204 159.788 47.2299C157.24 48.5888 154.975 50.344 153.107 52.6088C151.691 54.2508 150.615 56.0061 150.162 57.9878Z" fill="#1C6A3B"/>
</svg>
