<svg width="66" height="65" viewBox="0 0 66 65" fill="none" xmlns="http://www.w3.org/2000/svg">
<path d="M32.9886 39.2259C36.7084 39.2259 39.7238 36.2104 39.7238 32.4906C39.7238 28.7709 36.7084 25.7554 32.9886 25.7554C29.2688 25.7554 26.2533 28.7709 26.2533 32.4906C26.2533 36.2104 29.2688 39.2259 32.9886 39.2259Z" fill="white"/>
<path d="M32.9886 0.417725C15.2754 0.417725 0.915894 14.7772 0.915894 32.4905C0.915894 50.2037 15.2754 64.5632 32.9886 64.5632C50.7019 64.5632 65.0614 50.2037 65.0614 32.4905C65.0614 14.7772 50.7019 0.417725 32.9886 0.417725ZM52.8042 40.6421C52.6502 43.6913 51.7934 46.6982 49.5713 48.8967C47.3276 51.1161 44.3065 51.9431 41.2279 52.0955H24.7495C21.6705 51.9431 18.6498 51.1166 16.4061 48.8967C14.1839 46.6982 13.3271 43.6913 13.1732 40.6421V24.3389C13.3271 21.2896 14.184 18.2828 16.4061 16.0841C18.6498 13.8647 21.6709 13.0377 24.7495 12.8854H41.2277C44.3067 13.0377 47.3275 13.8643 49.5711 16.0841C51.7934 18.2828 52.6501 21.2896 52.8041 24.3389L52.8042 40.6421Z" fill="white"/>
<path d="M41.0197 16.5999C37.006 16.4898 28.9724 16.4898 24.9587 16.5999C22.87 16.6572 20.5021 17.1772 19.0139 18.7667C17.4675 20.419 16.8832 22.4152 16.8239 24.6483C16.7197 28.5679 16.8239 40.3322 16.8239 40.3322C16.8918 42.5651 17.4675 44.5615 19.0139 46.2138C20.5021 47.8038 22.87 48.3233 24.9587 48.3806C28.9724 48.4907 37.006 48.4907 41.0197 48.3806C43.1084 48.3233 45.4763 47.8033 46.9644 46.2138C48.5109 44.5615 49.0952 42.5653 49.1545 40.3322V24.6483C49.0952 22.4152 48.5109 20.419 46.9644 18.7667C45.4757 17.1767 43.1079 16.6572 41.0197 16.5999ZM32.9887 42.9299C30.9239 42.9299 28.9055 42.3177 27.1887 41.1705C25.4719 40.0234 24.1338 38.393 23.3437 36.4854C22.5535 34.5778 22.3468 32.4787 22.7496 30.4536C23.1524 28.4285 24.1467 26.5683 25.6067 25.1083C27.0667 23.6483 28.9269 22.654 30.952 22.2512C32.9771 21.8484 35.0762 22.0551 36.9838 22.8453C38.8914 23.6354 40.5218 24.9735 41.6689 26.6903C42.8161 28.4071 43.4284 30.4255 43.4284 32.4903C43.4284 35.259 42.3285 37.9144 40.3706 39.8722C38.4128 41.83 35.7575 42.9299 32.9887 42.9299ZM43.4727 24.2055C43.0598 24.2054 42.6562 24.0828 42.3129 23.8534C41.9696 23.6239 41.7021 23.2977 41.5441 22.9162C41.3862 22.5347 41.3449 22.1149 41.4255 21.7099C41.5061 21.3049 41.705 20.9329 41.997 20.641C42.2891 20.349 42.6611 20.1502 43.0661 20.0697C43.4711 19.9892 43.8909 20.0306 44.2724 20.1886C44.6539 20.3466 44.9799 20.6143 45.2093 20.9576C45.4387 21.301 45.5612 21.7046 45.5612 22.1176C45.5612 22.3918 45.5072 22.6633 45.4022 22.9167C45.2972 23.17 45.1434 23.4002 44.9495 23.5941C44.7555 23.788 44.5253 23.9418 44.2719 24.0467C44.0185 24.1516 43.747 24.2056 43.4727 24.2055Z" fill="white"/>
</svg>
