<svg width="65" height="65" viewBox="0 0 65 65" fill="none" xmlns="http://www.w3.org/2000/svg">
<path fill-rule="evenodd" clip-rule="evenodd" d="M32.2425 64.5527C49.9558 64.5527 64.3153 50.1932 64.3153 32.48C64.3153 14.7667 49.9558 0.407227 32.2425 0.407227C14.5293 0.407227 0.1698 14.7667 0.1698 32.48C0.1698 50.1932 14.5293 64.5527 32.2425 64.5527ZM20.9515 26.6556H27.6112V20.9439C27.6112 14.3205 31.6548 10.7154 37.5631 10.7154C39.5574 10.7083 41.5505 10.8102 43.5337 11.0206V17.9432H39.4593C36.2447 17.9432 35.6222 19.4707 35.6222 21.7126V26.6556H43.3081L42.3067 34.4172H35.6227V54.2445H27.6112V34.4172H20.9515V26.6556Z" fill="white"/>
</svg>
