<svg width="66" height="65" viewBox="0 0 66 65" fill="none" xmlns="http://www.w3.org/2000/svg">
<path d="M32.9886 39.2152C36.7084 39.2152 39.7238 36.1997 39.7238 32.4799C39.7238 28.7601 36.7084 25.7446 32.9886 25.7446C29.2688 25.7446 26.2533 28.7601 26.2533 32.4799C26.2533 36.1997 29.2688 39.2152 32.9886 39.2152Z" fill="white"/>
<path d="M32.9886 0.407227C15.2754 0.407227 0.915894 14.7667 0.915894 32.48C0.915894 50.1932 15.2754 64.5527 32.9886 64.5527C50.7019 64.5527 65.0614 50.1932 65.0614 32.48C65.0614 14.7667 50.7019 0.407227 32.9886 0.407227ZM52.8042 40.6316C52.6502 43.6808 51.7934 46.6877 49.5713 48.8862C47.3276 51.1056 44.3065 51.9326 41.2279 52.085H24.7495C21.6705 51.9326 18.6498 51.1061 16.4061 48.8862C14.1839 46.6877 13.3271 43.6808 13.1732 40.6316V24.3284C13.3271 21.2791 14.184 18.2723 16.4061 16.0736C18.6498 13.8542 21.6709 13.0272 24.7495 12.8749H41.2277C44.3067 13.0272 47.3275 13.8538 49.5711 16.0736C51.7934 18.2723 52.6501 21.2791 52.8041 24.3284L52.8042 40.6316Z" fill="white"/>
<path d="M41.0197 16.5894C37.006 16.4793 28.9724 16.4793 24.9587 16.5894C22.87 16.6467 20.5021 17.1667 19.0139 18.7562C17.4675 20.4085 16.8832 22.4047 16.8239 24.6379C16.7197 28.5574 16.8239 40.3217 16.8239 40.3217C16.8918 42.5546 17.4675 44.551 19.0139 46.2033C20.5021 47.7933 22.87 48.3128 24.9587 48.3701C28.9724 48.4802 37.006 48.4802 41.0197 48.3701C43.1084 48.3128 45.4763 47.7928 46.9644 46.2033C48.5109 44.551 49.0952 42.5548 49.1545 40.3217V24.6379C49.0952 22.4047 48.5109 20.4085 46.9644 18.7562C45.4757 17.1662 43.1079 16.6467 41.0197 16.5894ZM32.9887 42.9194C30.9239 42.9194 28.9055 42.3072 27.1887 41.16C25.4719 40.0129 24.1338 38.3825 23.3437 36.4749C22.5535 34.5673 22.3468 32.4682 22.7496 30.4431C23.1524 28.418 24.1467 26.5578 25.6067 25.0978C27.0667 23.6378 28.9269 22.6435 30.952 22.2407C32.9771 21.8379 35.0762 22.0446 36.9838 22.8348C38.8914 23.6249 40.5218 24.963 41.6689 26.6798C42.8161 28.3966 43.4284 30.415 43.4284 32.4798C43.4284 35.2485 42.3285 37.9039 40.3706 39.8617C38.4128 41.8195 35.7575 42.9194 32.9887 42.9194ZM43.4727 24.195C43.0598 24.1949 42.6562 24.0724 42.3129 23.8429C41.9696 23.6134 41.7021 23.2872 41.5441 22.9057C41.3862 22.5242 41.3449 22.1044 41.4255 21.6994C41.5061 21.2944 41.705 20.9224 41.997 20.6305C42.2891 20.3385 42.6611 20.1397 43.0661 20.0592C43.4711 19.9787 43.8909 20.0201 44.2724 20.1781C44.6539 20.3362 44.9799 20.6038 45.2093 20.9471C45.4387 21.2905 45.5612 21.6941 45.5612 22.1071C45.5612 22.3813 45.5072 22.6528 45.4022 22.9062C45.2972 23.1595 45.1434 23.3897 44.9495 23.5836C44.7555 23.7775 44.5253 23.9313 44.2719 24.0362C44.0185 24.1411 43.747 24.1951 43.4727 24.195Z" fill="white"/>
</svg>
