<svg width="65" height="65" viewBox="0 0 65 65" fill="none" xmlns="http://www.w3.org/2000/svg">
<path fill-rule="evenodd" clip-rule="evenodd" d="M32.2425 64.5632C49.9558 64.5632 64.3153 50.2037 64.3153 32.4905C64.3153 14.7772 49.9558 0.417725 32.2425 0.417725C14.5293 0.417725 0.1698 14.7772 0.1698 32.4905C0.1698 50.2037 14.5293 64.5632 32.2425 64.5632ZM20.9515 26.6661H27.6112V20.9544C27.6112 14.331 31.6548 10.7259 37.5631 10.7259C39.5574 10.7188 41.5505 10.8207 43.5337 11.0311V17.9537H39.4593C36.2447 17.9537 35.6222 19.4812 35.6222 21.7231V26.6661H43.3081L42.3067 34.4277H35.6227V54.255H27.6112V34.4277H20.9515V26.6661Z" fill="white"/>
</svg>
