<svg width="187" height="58" viewBox="0 0 187 58" fill="none" xmlns="http://www.w3.org/2000/svg">
<path d="M17.1963 34.387C16.8055 34.387 16.5369 34.5091 16.3903 34.7533C16.3415 34.8022 16.3171 34.9243 16.3171 35.1197C16.2682 35.2174 16.2438 35.3639 16.2438 35.5593V37.7575C16.2438 37.9529 16.2194 38.1239 16.1705 38.2704C16.1705 38.3681 16.1705 38.5147 16.1705 38.7101C16.2194 38.8566 16.2438 38.9787 16.2438 39.0764C16.2926 39.1741 16.2926 39.2963 16.2438 39.4428C16.2438 39.5894 16.2194 39.7603 16.1705 39.9557C16.1217 40.1511 16.1217 40.3221 16.1705 40.4686C16.2194 40.5663 16.2682 40.6396 16.3171 40.6884C16.3659 40.7373 16.3903 40.8106 16.3903 40.9083C16.1949 41.2991 16.0972 41.6166 16.0972 41.8608C16.0484 42.1051 15.9995 42.3737 15.9507 42.6668C15.9507 42.9599 15.9995 43.253 16.0972 43.5461C16.0972 43.5949 16.0972 43.6682 16.0972 43.7659C16.1461 43.8636 16.1461 43.9613 16.0972 44.059C16.0972 44.1079 16.0484 44.1567 15.9507 44.2056C15.9018 44.2544 15.9263 44.2788 16.024 44.2788C16.1217 44.2788 16.1705 44.3277 16.1705 44.4254C16.2682 44.5719 16.2682 44.694 16.1705 44.7917L16.024 45.5977C15.9751 45.6954 15.9751 45.8176 16.024 45.9641C16.0728 46.1107 16.0972 46.2328 16.0972 46.3305C16.1949 46.7213 16.2438 46.9899 16.2438 47.1365C16.2438 47.2342 16.2194 47.3319 16.1705 47.4296C16.1217 47.4784 16.0972 47.5517 16.0972 47.6494C16.0972 47.6494 16.0972 47.7471 16.0972 47.9425C16.1949 48.2356 16.1949 48.5287 16.0972 48.8218C15.9995 49.066 15.9751 49.3103 16.024 49.5545C16.0728 49.7987 16.0728 50.0186 16.024 50.214C15.9751 50.3605 15.9507 50.5559 15.9507 50.8001C15.9018 51.1909 15.9263 51.6061 16.024 52.0458C16.1217 52.4854 16.1461 52.9251 16.0972 53.3647C15.9995 53.9997 16.024 54.5859 16.1705 55.1233C16.2194 55.2698 16.1949 55.3919 16.0972 55.4896C15.9507 55.6362 15.8286 55.7827 15.7309 55.9293C15.682 56.1247 15.5843 56.2712 15.4378 56.3689C15.2912 56.4666 15.1691 56.5643 15.0714 56.662C14.9737 56.8085 14.8272 56.9307 14.6318 57.0284L14.0456 57.468C13.8502 57.6145 13.5327 57.6878 13.093 57.6878C12.4092 57.639 11.7253 57.3459 11.0414 56.8085C10.6995 56.5643 10.4064 56.2712 10.1621 55.9293C9.91787 55.5873 9.7469 55.2209 9.6492 54.8302C9.55151 54.5859 9.47823 54.3661 9.42938 54.1707C9.38053 53.9753 9.38053 53.7555 9.42938 53.5112C9.47823 53.3647 9.50266 53.1693 9.50266 52.9251C9.50266 52.8762 9.47823 52.8274 9.42938 52.7785C9.42938 52.7785 9.42938 52.7541 9.42938 52.7052C9.23399 52.5098 9.18514 52.29 9.28284 52.0458C9.33169 51.7527 9.30726 51.5573 9.20956 51.4596C9.16071 51.4107 9.13629 51.2886 9.13629 51.0932C9.23399 50.9955 9.28284 50.849 9.28284 50.6536C9.28284 50.4582 9.25841 50.2628 9.20956 50.0674C9.20956 50.0186 9.18514 49.9697 9.13629 49.9209C9.13629 49.8232 9.13629 49.7255 9.13629 49.6278C8.89205 49.5301 8.86762 49.3591 9.06302 49.1149C9.06302 49.0172 9.08744 48.9439 9.13629 48.895C9.13629 48.7973 9.13629 48.6996 9.13629 48.6019C9.18514 48.4554 9.18514 48.3333 9.13629 48.2356C9.13629 48.089 9.13629 47.9425 9.13629 47.7959C9.18514 47.6005 9.18514 47.4296 9.13629 47.283V47.2098C9.13629 46.9655 9.11187 46.7457 9.06302 46.5503C9.06302 46.3549 9.06302 46.1595 9.06302 45.9641C9.06302 45.7687 9.01417 45.5977 8.91647 45.4512C8.86762 45.2558 8.86762 45.0604 8.91647 44.865C8.91647 44.4742 8.91647 44.059 8.91647 43.6194C8.96532 43.1797 8.9409 42.7401 8.8432 42.3005C8.79435 41.9585 8.76993 41.641 8.76993 41.3479C8.81877 41.006 8.8432 40.664 8.8432 40.3221C8.8432 40.029 8.8432 39.7603 8.8432 39.5161C8.8432 39.223 8.79435 38.9299 8.69665 38.6368C8.69665 38.5391 8.62338 38.4903 8.47683 38.4903C8.23259 38.4903 7.96392 38.6368 7.67083 38.9299C7.67083 38.9299 7.62198 38.9055 7.52428 38.8566C7.23119 38.6124 7.08464 38.2216 7.08464 37.6843C7.08464 37.5866 7.08464 37.5133 7.08464 37.4644C7.13349 37.4156 7.15792 37.3423 7.15792 37.2446C7.25561 37.0004 7.35331 36.7805 7.45101 36.5852C7.59756 36.3898 7.7441 36.2188 7.89065 36.0722C8.03719 35.9745 8.18374 35.8768 8.33029 35.7792C8.47683 35.6815 8.59895 35.5593 8.69665 35.4128C8.79435 35.3639 8.8432 35.2418 8.8432 35.0464V34.387C8.79435 34.1916 8.76993 33.8008 8.76993 33.2146C8.76993 32.9703 8.76993 32.7505 8.76993 32.5551C8.76993 32.3109 8.79435 32.0178 8.8432 31.6759C8.8432 31.4316 8.8432 31.1629 8.8432 30.8699C8.8432 30.5768 8.81877 30.2837 8.76993 29.9906C8.72108 29.844 8.69665 29.6975 8.69665 29.5509C8.7455 29.4044 8.7455 29.2578 8.69665 29.1113C8.7455 28.7205 8.76993 28.3541 8.76993 28.0122C8.76993 27.6703 8.76993 27.3039 8.76993 26.9131C8.91647 26.3269 8.89205 25.7896 8.69665 25.3011V24.4951C8.79435 24.202 8.8432 23.8845 8.8432 23.5425C8.8432 23.2006 8.8432 22.8587 8.8432 22.5167C8.89205 22.1748 8.89205 21.8573 8.8432 21.5642C8.8432 21.2711 8.81877 20.978 8.76993 20.6849V19.2194C8.86762 18.4378 8.8432 17.7295 8.69665 17.0945V16.3618C8.69665 16.1175 8.69665 15.8489 8.69665 15.5558C8.7455 15.2627 8.72108 14.9452 8.62338 14.6032C8.62338 14.359 8.59895 14.1392 8.55011 13.9438C8.6478 13.3576 8.6478 12.8691 8.55011 12.4783C8.45241 12.4295 8.45241 12.3562 8.55011 12.2585C8.55011 11.5746 8.50126 10.9396 8.40356 10.3534C8.35471 9.71834 8.37914 9.13216 8.47683 8.59483C8.47683 8.30173 8.47683 8.05749 8.47683 7.86209C8.47683 7.61785 8.45241 7.37361 8.40356 7.12936C8.30586 6.64088 8.33029 6.27451 8.47683 6.03026L8.8432 5.51735C8.89205 5.46851 8.91647 5.41966 8.91647 5.37081L8.62338 5.15099H7.37774C6.9381 5.10214 6.66943 5.07772 6.57173 5.07772C6.47403 5.02887 6.42519 5.00444 6.42519 5.00444C6.47403 5.00444 6.49846 5.00444 6.49846 5.00444C6.54731 5.00444 6.44961 5.00444 6.20537 5.00444C5.76573 5.00444 5.42379 5.02887 5.17954 5.07772C4.98415 5.07772 4.7399 5.12657 4.44681 5.22426C4.30027 5.27311 4.12929 5.29753 3.9339 5.29753C3.78735 5.24869 3.66523 5.22426 3.56753 5.22426C2.88365 5.5662 2.1265 5.51736 1.29607 5.07772C1.24722 5.07772 1.17395 5.02887 1.07625 4.93117C0.832005 4.78462 0.661034 4.61365 0.563337 4.41826C0.465639 4.17402 0.367942 3.92977 0.270244 3.68553C0.270244 3.53898 0.270244 3.41686 0.270244 3.31916C0.319093 3.22146 0.319093 3.12377 0.270244 3.02607C0.319093 2.87952 0.319093 2.78183 0.270244 2.73298L0.63661 1.92697C0.63661 1.87812 0.661034 1.8537 0.709883 1.8537C0.758732 1.8537 0.783156 1.82927 0.783156 1.78043C1.0274 1.87812 1.24722 1.90255 1.44261 1.8537C1.68686 1.756 1.90668 1.6583 2.10207 1.56061C2.49286 1.46291 2.90808 1.38964 3.34772 1.34079C3.8362 1.29194 4.30027 1.21866 4.7399 1.12097L5.61918 1.26751C5.81458 1.21866 6.08324 1.16982 6.42519 1.12097C6.76713 1.02327 7.35331 1.02327 8.18374 1.12097C8.23259 1.12097 8.25701 1.14539 8.25701 1.19424C8.30586 1.24309 8.37914 1.26751 8.47683 1.26751C8.91647 1.26751 9.35611 1.29194 9.79575 1.34079C10.2354 1.38964 10.6995 1.43849 11.1879 1.48733C11.5787 1.63388 11.9939 1.756 12.4336 1.8537C12.9221 1.9514 13.3617 2.0491 13.7525 2.14679C14.4364 2.39103 15.0958 2.61085 15.7309 2.80625C16.3659 2.9528 17.0009 3.14819 17.636 3.39244C18.1733 3.63668 18.7351 3.88092 19.3213 4.12517C19.9074 4.32056 20.518 4.56481 21.1531 4.8579L23.7176 6.39663C24.1084 6.68973 24.4992 7.00724 24.89 7.34918C25.2808 7.64228 25.6716 7.98422 26.0624 8.375C26.4043 8.6681 26.7218 8.98562 27.0149 9.32756C27.3569 9.62065 27.7232 9.93817 28.114 10.2801C28.3583 10.622 28.6025 10.9884 28.8468 11.3792C29.1399 11.7211 29.4085 12.0875 29.6528 12.4783C29.9947 13.1622 30.2634 13.8216 30.4588 14.4567C30.703 15.0917 30.8496 15.7512 30.8984 16.435C30.8984 16.6793 30.8984 16.9235 30.8984 17.1678C30.8984 17.412 30.9228 17.6563 30.9717 17.9005C30.9228 18.5844 30.8251 19.2683 30.6786 19.9522C30.5809 20.5872 30.4343 21.2222 30.2389 21.8573L29.726 23.396C29.3352 24.373 28.8468 25.2767 28.2606 26.1071L26.7951 27.9389L26.0624 28.8182C25.6716 29.209 25.2808 29.5265 24.89 29.7708C24.5481 30.015 24.1817 30.3325 23.7909 30.7233C23.6932 30.7722 23.6199 30.821 23.5711 30.8699C23.5711 30.9187 23.5222 30.992 23.4245 31.0897L22.9116 31.456C22.5697 31.7003 22.2522 31.9445 21.9591 32.1888C21.666 32.3842 21.3729 32.5551 21.0798 32.7017C20.689 32.8971 20.2982 33.1413 19.9074 33.4344C19.5655 33.6787 19.1991 33.9229 18.8083 34.1671C18.5152 34.3137 18.2222 34.387 17.9291 34.387H17.636L17.8558 34.0206C17.9046 34.0206 17.9046 33.9962 17.8558 33.9473L17.7825 33.874C17.6848 33.9717 17.5627 34.0694 17.4162 34.1671C17.3185 34.216 17.2452 34.2893 17.1963 34.387ZM26.7951 16.435C26.7951 15.4092 26.5509 14.4323 26.0624 13.5041C25.8181 13.1133 25.5983 12.7958 25.4029 12.5516C25.2075 12.2585 24.9633 11.9898 24.6702 11.7456C24.4748 11.5013 24.255 11.2571 24.0107 11.0128C23.8153 10.7686 23.6199 10.5488 23.4245 10.3534C23.0338 10.1091 22.6918 9.86489 22.3987 9.62065C22.1056 9.37641 21.7637 9.15659 21.3729 8.96119C20.9333 8.71695 20.4936 8.49713 20.054 8.30173C19.6143 8.05749 19.1747 7.83767 18.7351 7.64227C17.465 6.95839 16.024 6.4699 14.412 6.17681C14.3143 6.12796 14.1677 6.10354 13.9723 6.10354C13.8258 6.10354 13.7036 6.10354 13.606 6.10354H13.5327C13.5327 6.15239 13.5571 6.17681 13.606 6.17681C13.7036 6.27451 13.8502 6.37221 14.0456 6.46991C14.241 6.51875 14.3875 6.59203 14.4852 6.68972C14.8272 6.93397 15.1691 7.17821 15.5111 7.42246C15.853 7.6667 16.1461 7.98422 16.3903 8.375C16.6346 8.71695 16.83 9.05889 16.9765 9.40083C17.1231 9.74277 17.2696 10.1091 17.4162 10.4999C17.4162 10.7442 17.4162 11.0128 17.4162 11.3059C17.4162 11.599 17.3429 11.8677 17.1963 12.1119C17.1475 12.3073 17.1231 12.6248 17.1231 13.0645C17.1231 13.1622 17.0986 13.2599 17.0498 13.3576C17.0498 13.4553 17.0498 13.553 17.0498 13.6507V19.9522C16.7567 20.3429 16.7567 20.6849 17.0498 20.978C17.0986 21.0757 17.0986 21.1734 17.0498 21.2711C17.0498 21.3688 17.0498 21.4665 17.0498 21.5642C17.0498 21.8573 17.0009 22.248 16.9032 22.7365C16.8055 23.0785 16.7078 23.3471 16.6101 23.5425C16.5125 23.6891 16.5125 23.7868 16.6101 23.8356C16.7567 23.9333 16.7811 24.0799 16.6834 24.2753C16.5857 24.4707 16.5369 24.6416 16.5369 24.7882C16.5369 24.9836 16.5857 25.1545 16.6834 25.3011C16.7811 25.4476 16.83 25.5942 16.83 25.7407C16.83 25.8384 16.8055 25.985 16.7567 26.1804C16.7078 26.3269 16.6834 26.449 16.6834 26.5467C16.6834 26.791 16.6834 27.0352 16.6834 27.2795C16.6834 27.4749 16.659 27.6947 16.6101 27.9389V28.1587C16.659 28.3541 16.6346 28.6717 16.5369 29.1113L16.6101 29.1846H16.7567C16.8544 29.0869 16.9521 28.9648 17.0498 28.8182C17.1963 28.6717 17.3673 28.5495 17.5627 28.4518L18.7351 27.5726C19.419 26.9864 20.0784 26.4002 20.7134 25.814C21.3973 25.179 22.0812 24.5195 22.7651 23.8356C23.1559 23.396 23.5222 22.9564 23.8642 22.5167C24.255 22.0771 24.6213 21.613 24.9633 21.1245C25.5495 20.4406 25.9403 19.8056 26.1357 19.2194C26.2822 18.8286 26.4287 18.4378 26.5753 18.0471C26.7218 17.6074 26.7951 17.1922 26.7951 16.8014V16.435ZM15.7309 49.9209H15.6576V49.9941L15.5111 50.507C15.5111 50.507 15.4866 50.5315 15.4378 50.5803C15.4378 50.5803 15.4134 50.5559 15.3645 50.507C15.3157 50.0186 15.3645 49.5056 15.5111 48.9683C15.5111 48.9195 15.5111 48.7485 15.5111 48.4554C15.5599 48.1623 15.5599 47.9669 15.5111 47.8692V47.7959H15.4378C15.3889 48.0402 15.3157 48.3577 15.218 48.7485C15.1691 49.1393 15.1447 49.4568 15.1447 49.701C15.1447 49.9941 15.1447 50.3117 15.1447 50.6536C15.1935 50.9467 15.2424 51.2642 15.2912 51.6061C15.3401 51.8015 15.3645 52.1191 15.3645 52.5587V53.438C15.3157 53.9753 15.4378 54.5615 15.7309 55.1965C15.7309 55.2454 15.7553 55.2454 15.8041 55.1965V55.1233C15.8041 55.0256 15.8041 54.9523 15.8041 54.9034C15.853 54.8546 15.853 54.7813 15.8041 54.6836C15.7064 54.4394 15.6576 54.2196 15.6576 54.0242C15.6576 53.8776 15.6576 53.7066 15.6576 53.5112C15.6576 53.3647 15.6576 53.2182 15.6576 53.0716C15.7064 52.9251 15.682 52.7785 15.5843 52.632V52.0458C15.682 51.8015 15.7309 51.5817 15.7309 51.3863C15.7309 51.1909 15.7309 50.9955 15.7309 50.8001V49.9209ZM14.9981 41.641C15.047 41.7875 15.0714 41.9829 15.0714 42.2272V42.3005C15.1691 42.4959 15.1691 42.6668 15.0714 42.8134C15.0226 42.9111 15.0226 43.0576 15.0714 43.253C15.0714 43.3996 15.047 43.4728 14.9981 43.4728C14.9981 43.5705 15.047 43.7659 15.1447 44.059L14.9249 44.4254C14.9249 44.5231 14.9249 44.5963 14.9249 44.6452C14.9737 44.694 14.9981 44.7429 14.9981 44.7917C14.9981 44.7917 15.0226 44.7673 15.0714 44.7185V44.9383V45.1581C15.0714 45.1093 15.0714 45.0848 15.0714 45.0848C15.1203 45.0848 15.1447 45.0604 15.1447 45.0116H15.218H15.1447C15.1935 44.9627 15.218 44.9139 15.218 44.865H15.2912V44.9383C15.3401 44.8406 15.3401 44.7429 15.2912 44.6452C15.2912 44.5475 15.2912 44.4498 15.2912 44.3521C15.2912 44.2056 15.2912 44.059 15.2912 43.9125C15.2912 43.7171 15.3157 43.5461 15.3645 43.3996C15.3645 43.3019 15.3645 43.2042 15.3645 43.1065C15.3645 42.9599 15.4134 42.8378 15.5111 42.7401C15.5111 42.6912 15.5111 42.6668 15.5111 42.6668C15.5599 42.618 15.5843 42.5447 15.5843 42.447C15.5355 42.3982 15.5111 42.276 15.5111 42.0806C15.4134 41.7875 15.3645 41.5677 15.3645 41.4212V41.7143V41.8608C15.3645 41.9097 15.3401 41.9585 15.2912 42.0074C15.2912 42.0562 15.2912 42.1051 15.2912 42.1539V42.2272C15.2912 42.2272 15.2668 42.2272 15.218 42.2272C15.1691 42.2272 15.1447 42.2028 15.1447 42.1539V41.641C15.0958 41.4456 15.0958 41.2258 15.1447 40.9815V40.9083C15.1447 40.9083 15.1203 40.8838 15.0714 40.835V40.9815V41.4945C15.0226 41.4945 14.9737 41.5189 14.9249 41.5677C14.9249 41.6166 14.9493 41.641 14.9981 41.641ZM15.9507 22.5167C15.9018 22.3702 15.9263 22.1259 16.024 21.784C16.1217 21.3932 16.1705 21.149 16.1705 21.0513C16.0728 20.807 15.9507 20.6605 15.8041 20.6116C15.7553 20.6116 15.7309 20.636 15.7309 20.6849V20.7582C15.7309 20.8559 15.7553 20.9536 15.8041 21.0513C15.7553 21.1001 15.7064 21.2466 15.6576 21.4909C15.6087 21.7351 15.6332 21.8573 15.7309 21.8573C15.7797 21.9061 15.8041 21.9794 15.8041 22.0771C15.7553 22.2236 15.7309 22.3946 15.7309 22.59C15.7309 22.7365 15.7309 22.8587 15.7309 22.9564C15.7309 23.0052 15.7309 23.0296 15.7309 23.0296C15.7797 23.0296 15.8041 23.0541 15.8041 23.1029C15.853 23.0541 15.8774 23.0052 15.8774 22.9564C15.8774 22.7121 15.9018 22.5656 15.9507 22.5167ZM14.1921 50.0674C14.2898 49.9697 14.3143 49.9209 14.2654 49.9209C14.2654 49.5301 14.3631 49.0904 14.5585 48.6019C14.6073 48.5042 14.6318 48.4066 14.6318 48.3089C14.6806 48.2112 14.6806 48.089 14.6318 47.9425C14.6318 47.8448 14.6073 47.7715 14.5585 47.7227C14.4608 47.625 14.412 47.6982 14.412 47.9425C14.412 48.1867 14.3875 48.3821 14.3387 48.5287C14.241 48.7729 14.1921 49.0904 14.1921 49.4812V50.0674ZM15.8774 28.1587C15.8774 28.0122 15.9018 27.7191 15.9507 27.2795C15.9995 26.8398 16.024 26.5467 16.024 26.4002C16.024 26.3513 15.9751 26.2781 15.8774 26.1804C15.8774 26.1315 15.853 26.1071 15.8041 26.1071C15.7553 26.1071 15.7309 26.1559 15.7309 26.2536C15.8286 26.449 15.853 26.791 15.8041 27.2795C15.8041 27.768 15.8041 28.1343 15.8041 28.3786C15.8041 28.4274 15.7797 28.5007 15.7309 28.5984C15.7309 28.6472 15.7309 28.7205 15.7309 28.8182C15.7309 28.8182 15.7553 28.8426 15.8041 28.8915C15.8041 28.8426 15.8041 28.8426 15.8041 28.8915C15.853 28.8915 15.8774 28.8671 15.8774 28.8182V28.1587ZM16.3903 17.4609C16.3903 17.3632 16.3903 17.2899 16.3903 17.2411C16.4392 17.1922 16.4636 17.1189 16.4636 17.0212C16.4148 16.9235 16.3903 16.8747 16.3903 16.8747C16.4392 16.8258 16.4392 16.7526 16.3903 16.6549L16.1705 17.0212C16.1705 17.1189 16.1461 17.2655 16.0972 17.4609C16.0972 17.6563 16.1217 17.8028 16.1705 17.9005H16.2438V18.0471C16.2926 17.9494 16.3415 17.9005 16.3903 17.9005C16.4392 17.8517 16.4392 17.7784 16.3903 17.6807V17.4609ZM15.0714 45.1581C14.9737 45.6466 14.9493 46.013 14.9981 46.2572V46.4038C14.9981 46.5014 15.0226 46.5503 15.0714 46.5503V47.6494C15.0714 47.6005 15.0958 47.5517 15.1447 47.5028C15.1935 47.4052 15.218 47.3075 15.218 47.2098C15.218 47.2098 15.1935 47.1853 15.1447 47.1365C15.1447 47.0388 15.1203 46.9655 15.0714 46.9167C15.0714 46.819 15.0958 46.7213 15.1447 46.6236C15.2424 46.3793 15.2668 46.1107 15.218 45.8176H15.1447V45.9641C15.0958 45.9641 15.0714 45.8908 15.0714 45.7443V45.5977C15.0714 45.5977 15.0958 45.5245 15.1447 45.3779V45.2314H15.0714V45.1581ZM15.218 39.8824C15.2668 40.0778 15.2912 40.3709 15.2912 40.7617C15.2912 40.5175 15.3157 40.3465 15.3645 40.2488V39.8092C15.3645 39.6138 15.3889 39.4672 15.4378 39.3695C15.3401 39.223 15.2912 39.0764 15.2912 38.9299C15.2912 38.7833 15.2668 38.6368 15.218 38.4903V38.417C15.1691 38.4658 15.1691 38.5147 15.218 38.5635C15.1691 38.6124 15.1447 38.7345 15.1447 38.9299C15.1447 39.0764 15.1447 39.1497 15.1447 39.1497C15.1935 39.2963 15.218 39.4672 15.218 39.6626V39.8824ZM16.5369 13.5041C16.488 13.3576 16.4636 13.1622 16.4636 12.9179C16.4636 12.8202 16.4392 12.747 16.3903 12.6981V13.9438V14.0903C16.3903 14.2369 16.4392 14.2124 16.5369 14.017V13.9438C16.488 13.8949 16.4636 13.8461 16.4636 13.7972C16.5125 13.6995 16.5369 13.6018 16.5369 13.5041ZM10.1621 48.089C10.1621 48.1379 10.1865 48.1623 10.2354 48.1623V47.8692C10.1865 47.8692 10.1621 47.8936 10.1621 47.9425V48.089ZM15.7309 24.3485C15.682 24.4462 15.682 24.4951 15.7309 24.4951L15.8041 24.3485H15.7309ZM15.218 45.0848C15.218 45.0848 15.1935 45.1337 15.1447 45.2314L15.2912 45.0848C15.2912 45.0848 15.2668 45.0848 15.218 45.0848ZM15.7309 25.3011C15.6332 25.3011 15.6332 25.3744 15.7309 25.5209V25.3011ZM15.8041 25.814C15.8041 25.814 15.7797 25.7652 15.7309 25.6675C15.7309 25.7652 15.7553 25.814 15.8041 25.814ZM15.2912 44.7917C15.2424 44.8406 15.218 44.865 15.218 44.865L15.2912 44.7917ZM40.0169 47.6494C39.675 47.6494 39.3574 47.6494 39.0644 47.6494C38.8201 47.6005 38.5759 47.5517 38.3316 47.5028C37.6477 47.2586 37.086 46.9411 36.6463 46.5503C35.5228 45.4268 34.8145 44.0834 34.5214 42.5203C34.4237 42.276 34.3504 42.0318 34.3016 41.7875C34.2527 41.4945 34.2527 41.2014 34.3016 40.9083C34.3016 40.8106 34.2772 40.7373 34.2283 40.6884C34.2283 40.6396 34.2283 40.5908 34.2283 40.5419C34.1306 40.3954 34.0818 40.2244 34.0818 40.029C34.0818 39.8336 34.0818 39.6626 34.0818 39.5161C34.0818 39.2718 34.0574 39.052 34.0085 38.8566C34.0085 38.6612 33.9841 38.4414 33.9352 38.1972C33.8375 37.611 33.8375 37.0004 33.9352 36.3653C33.9841 36.1211 34.0085 35.9257 34.0085 35.7792C34.0574 35.6326 34.0818 35.4372 34.0818 35.193V32.5551C34.0818 32.4574 34.0818 32.3353 34.0818 32.1888C34.0818 31.9934 34.1306 31.8224 34.2283 31.6759V31.3828C34.2283 31.0408 34.2527 30.7233 34.3016 30.4302C34.3504 30.0883 34.4237 29.7708 34.5214 29.4777V28.8915C34.5703 28.7449 34.5947 28.574 34.5947 28.3786C34.6435 27.597 34.7901 26.7421 35.0343 25.814C35.132 25.6675 35.1809 25.5209 35.1809 25.3744C35.2297 25.179 35.303 24.9836 35.4007 24.7882C35.4495 24.6416 35.5717 24.4707 35.7671 24.2753C35.8648 24.0799 35.9625 23.9333 36.0602 23.8356C36.1579 23.7379 36.28 23.6158 36.4265 23.4693C36.4754 23.3716 36.5242 23.3471 36.5731 23.396C36.915 23.5425 37.2814 23.6158 37.6722 23.6158C38.063 23.6158 38.5514 23.7868 39.1376 24.1287C39.2842 24.3241 39.4307 24.4951 39.5773 24.6416C39.7238 24.7882 39.8459 24.9592 39.9436 25.1545C40.0413 25.1545 40.0902 25.179 40.0902 25.2278C40.0902 25.2767 40.139 25.3255 40.2367 25.3744C40.4321 25.6186 40.5787 25.8629 40.6764 26.1071C40.8229 26.3513 40.945 26.5956 41.0427 26.8398C41.1404 27.2306 41.1404 27.597 41.0427 27.9389C40.9939 28.1343 40.945 28.3053 40.8962 28.4518C40.8962 28.5984 40.8962 28.7449 40.8962 28.8915V29.1113C40.7985 29.4532 40.7496 29.8196 40.7496 30.2104C40.7496 30.5523 40.7252 30.9187 40.6764 31.3095V31.8224C40.5787 32.3109 40.5298 32.7994 40.5298 33.2879C40.5298 33.7275 40.5298 34.1427 40.5298 34.5335V36.0722C40.5298 36.3165 40.5054 36.5363 40.4565 36.7317C40.4565 36.9271 40.4565 37.1469 40.4565 37.3912C40.31 37.8308 40.31 38.3437 40.4565 38.9299C40.4565 39.1741 40.4565 39.4428 40.4565 39.7359C40.4565 40.029 40.481 40.3221 40.5298 40.6152V41.641C40.481 41.9829 40.481 42.3249 40.5298 42.6668C40.6275 42.9599 40.7008 43.2774 40.7496 43.6194C40.7496 43.7171 40.7741 43.8148 40.8229 43.9125C40.8718 43.9613 40.9206 44.0346 40.9695 44.1323C41.0183 44.23 41.116 44.2788 41.2625 44.2788C41.5556 44.2788 41.8732 44.1567 42.2151 43.9125C42.6547 43.5217 43.0944 43.1309 43.534 42.7401C43.9736 42.3493 44.3889 41.9341 44.7797 41.4945L45.2193 40.9083C45.6101 40.5175 45.952 40.1267 46.2451 39.7359C46.5382 39.3451 46.8313 38.9543 47.1244 38.5635C47.5152 38.075 47.8571 37.5866 48.1502 37.0981C48.4922 36.5607 48.8585 36.0234 49.2493 35.4861C49.7866 34.6556 50.2751 33.8496 50.7148 33.068C51.2033 32.2376 51.7162 31.4072 52.2535 30.5768C52.3512 30.4791 52.4245 30.3569 52.4733 30.2104C52.571 30.015 52.6687 29.8685 52.7664 29.7708C52.9618 29.38 53.1572 29.0136 53.3526 28.6717C53.548 28.2809 53.7434 27.8901 53.9388 27.4993L54.4517 26.6933C54.5983 26.5467 54.6715 26.5712 54.6715 26.7666C54.8181 27.0596 54.8669 27.3527 54.8181 27.6458C54.6715 27.8901 54.5738 28.1343 54.525 28.3786C54.525 28.6228 54.525 28.8671 54.525 29.1113C54.525 29.3555 54.525 29.5509 54.525 29.6975C54.525 29.844 54.4761 30.0394 54.3784 30.2837C54.2807 30.8699 54.183 31.2606 54.0853 31.456C54.0365 31.6026 53.8899 31.9689 53.6457 32.5551C53.4992 32.9948 53.3282 33.4344 53.1328 33.874C52.9374 34.2648 52.7176 34.6556 52.4733 35.0464C52.3756 35.3395 52.2291 35.6082 52.0337 35.8524C51.8871 36.0967 51.765 36.3409 51.6673 36.5852V36.6584C51.4231 37.0492 51.2033 37.4644 51.0079 37.9041C50.8613 38.2949 50.6659 38.6857 50.4217 39.0764C50.2263 39.4184 50.0309 39.7603 49.8355 40.1023C49.689 40.4442 49.4936 40.7617 49.2493 41.0548C48.8097 41.8364 48.3212 42.5447 47.7839 43.1797C47.2465 43.7659 46.7092 44.3521 46.1718 44.9383C46.0253 45.036 45.9032 45.1581 45.8055 45.3047C45.7078 45.4024 45.6101 45.5 45.5124 45.5977C45.2681 45.842 45.0239 46.0374 44.7797 46.1839C44.5843 46.2816 44.3889 46.4282 44.1935 46.6236C43.9981 46.7213 43.9004 46.7701 43.9004 46.7701C43.4119 46.9655 42.9234 47.1365 42.4349 47.283C41.9464 47.4296 41.4579 47.5273 40.9695 47.5761C40.7741 47.625 40.5787 47.6494 40.3833 47.6494C40.2367 47.6494 40.1146 47.6494 40.0169 47.6494ZM37.0127 12.8447C37.0127 12.5027 37.0127 12.1852 37.0127 11.8921C37.0616 11.5502 37.1348 11.2082 37.2325 10.8663C37.3791 10.4755 37.5745 10.158 37.8187 9.91374C38.1118 9.62065 38.4049 9.4741 38.698 9.4741C38.9911 9.4741 39.2109 9.49853 39.3574 9.54738C39.6017 9.54738 39.7727 9.59622 39.8704 9.69392C40.1146 9.84047 40.3344 9.96259 40.5298 10.0603C40.7741 10.158 40.9939 10.329 41.1893 10.5732C41.4824 10.9151 41.7999 11.2327 42.1418 11.5258C42.6303 12.0142 42.9478 12.5271 43.0944 13.0645C43.1921 13.4064 43.2409 13.7484 43.2409 14.0903C43.2409 14.3834 43.2165 14.7009 43.1676 15.0429C43.1676 15.1406 43.1432 15.2138 43.0944 15.2627C43.0944 15.2627 43.0944 15.3115 43.0944 15.4092L42.4349 16.142C42.3372 16.3374 42.1174 16.4839 41.7755 16.5816H41.4091C41.116 16.6793 40.8962 16.8503 40.7496 17.0945C40.7008 17.1434 40.6031 17.2166 40.4565 17.3143C40.4565 17.412 40.3588 17.4609 40.1634 17.4609C39.3819 17.2166 38.698 16.8747 38.1118 16.435C37.5256 15.8977 37.1837 15.1406 37.086 14.1636C37.0371 13.9682 37.0127 13.7728 37.0127 13.5774C37.0127 13.3332 37.0127 13.0889 37.0127 12.8447ZM50.6312 45.671C50.6312 45.4756 50.6312 45.2802 50.6312 45.0848C50.5823 44.8894 50.5823 44.6696 50.6312 44.4254V43.4728C50.6312 43.1797 50.6312 42.8866 50.6312 42.5935C50.6312 42.3005 50.68 42.0318 50.7777 41.7875C50.8266 41.7387 50.851 41.6898 50.851 41.641C50.8022 41.2502 50.8266 40.8594 50.9243 40.4686C50.9731 40.029 51.022 39.6138 51.0708 39.223L51.2907 38.2704C51.2907 37.8796 51.3151 37.5621 51.3639 37.3179C51.4128 37.0736 51.4616 36.805 51.5105 36.5119C51.5105 36.2188 51.5593 35.9501 51.657 35.7059C51.7059 35.3639 51.7547 35.0708 51.8036 34.8266C51.8524 34.5335 51.9013 34.2648 51.9501 34.0206V33.6542C51.9501 33.41 51.9745 33.2146 52.0234 33.068C52.0234 32.9215 52.0478 32.7261 52.0967 32.4819C52.1455 32.3353 52.1699 32.1888 52.1699 32.0422C52.1699 31.8468 52.2188 31.6759 52.3165 31.5293C52.3165 31.4805 52.3165 31.4316 52.3165 31.3828C52.3653 31.3339 52.3898 31.2851 52.3898 31.2362C52.3898 30.8454 52.4142 30.4791 52.463 30.1371C52.5607 29.7952 52.634 29.4532 52.6828 29.1113V28.5251L52.8294 27.7924C52.9271 27.5481 52.9759 27.3283 52.9759 27.1329C52.9759 26.9375 53.0248 26.7177 53.1225 26.4735C53.1225 26.0827 53.1469 25.7163 53.1958 25.3744C53.2446 25.0324 53.269 24.6905 53.269 24.3485V23.9089C53.4156 23.2739 53.4888 22.6144 53.4888 21.9305C53.6354 21.6374 53.6842 21.3443 53.6354 21.0513C53.6354 20.7093 53.6842 20.3918 53.7819 20.0987L53.9285 19.4392V18.6332C54.0262 18.389 54.075 18.1936 54.075 18.0471C54.075 17.9005 54.075 17.7051 54.075 17.4609C54.075 17.3143 54.0995 17.2655 54.1483 17.3143C54.246 17.3632 54.2949 17.3143 54.2949 17.1678C54.246 17.0212 54.246 16.948 54.2949 16.948C54.3437 16.948 54.417 16.8991 54.5147 16.8014C54.6124 16.7037 54.7101 16.5327 54.8078 16.2885C54.9055 16.0443 55.0032 15.8733 55.1009 15.7756C55.1497 15.7267 55.1741 15.7512 55.1741 15.8489C55.223 15.8977 55.2474 15.8977 55.2474 15.8489C55.4428 15.8489 55.6138 15.7756 55.7603 15.629C55.9069 15.629 55.9801 15.629 55.9801 15.629C56.0778 15.6779 56.3953 15.7267 56.9327 15.7756C57.47 15.7756 57.7875 15.8244 57.8852 15.9221C58.1783 16.0687 58.3737 16.1664 58.4714 16.2152C58.5691 16.2641 58.6424 16.2885 58.6912 16.2885C58.7889 16.2885 58.8866 16.3129 58.9843 16.3618C59.1309 16.3618 59.3263 16.435 59.5705 16.5816C59.7171 16.6793 59.8392 16.8014 59.9369 16.948C60.0346 17.0457 60.1323 17.1434 60.23 17.2411C60.2788 17.2411 60.3032 17.2655 60.3032 17.3143C60.3032 17.412 60.3277 17.4609 60.3765 17.4609C60.6208 17.7051 60.7917 17.9738 60.8894 18.2669C60.9871 18.56 61.0848 18.8531 61.1825 19.1462V19.5125C61.2314 19.6102 61.2558 19.7812 61.2558 20.0254C61.4023 20.5139 61.4023 20.9047 61.2558 21.1978C61.2558 21.5886 61.2314 21.955 61.1825 22.2969C61.1337 22.6388 61.0848 22.9808 61.036 23.3227C60.9871 23.7135 60.9383 24.1043 60.8894 24.4951C60.8406 24.837 60.8162 25.2034 60.8162 25.5942C60.7185 25.8873 60.6696 26.1804 60.6696 26.4735C60.6696 26.7666 60.6208 27.0596 60.5231 27.3527C60.4742 27.597 60.4498 27.8412 60.4498 28.0855C60.4986 28.2809 60.4742 28.5007 60.3765 28.7449C60.2788 29.1357 60.1811 29.5265 60.0834 29.9173C60.0346 30.3081 59.9613 30.6989 59.8636 31.0897C59.8636 31.1874 59.8392 31.2606 59.7903 31.3095C59.7903 31.3583 59.7903 31.4072 59.7903 31.456C59.7415 31.9445 59.6682 32.4086 59.5705 32.8482C59.4728 33.239 59.3751 33.6298 59.2774 34.0206C59.2286 34.1183 59.2042 34.2404 59.2042 34.387C59.2042 34.6312 59.1797 34.851 59.1309 35.0464C59.082 35.2418 59.0332 35.4616 58.9843 35.7059C58.9355 35.9501 58.8866 36.1699 58.8378 36.3653C58.7889 36.5119 58.7645 36.7073 58.7645 36.9515C58.7645 37.0004 58.7401 37.0736 58.6912 37.1713C58.5935 37.611 58.5203 38.0506 58.4714 38.4903C58.4226 38.9299 58.3493 39.3451 58.2516 39.7359L57.9585 40.9815C57.9097 41.2258 57.8852 41.5922 57.8852 42.0806C57.8852 42.3249 57.8852 42.5691 57.8852 42.8134C57.8852 43.0088 57.8364 43.2286 57.7387 43.4728C57.6898 43.5705 57.6654 43.6438 57.6654 43.6926C57.7143 43.7415 57.7143 43.8148 57.6654 43.9125L57.7387 43.9857C57.7387 43.9857 57.7631 43.9613 57.812 43.9125C58.0562 43.3751 58.3004 42.8134 58.5447 42.2272C58.7889 41.641 59.0332 41.0548 59.2774 40.4686C59.5705 39.9313 59.8392 39.394 60.0834 38.8566C60.3277 38.3193 60.5719 37.7819 60.8162 37.2446L61.6954 35.3395C62.0374 34.6068 62.3793 33.8985 62.7213 33.2146C63.0632 32.4819 63.4296 31.7736 63.8204 31.0897C64.0158 30.6989 64.1867 30.3325 64.3333 29.9906C64.4798 29.6486 64.6752 29.2823 64.9195 28.8915L65.872 27.0596C66.0674 26.7666 66.2384 26.4979 66.3849 26.2536C66.5315 26.0094 66.7269 25.7652 66.9711 25.5209L67.4107 24.7149C67.5084 24.5195 67.6061 24.373 67.7038 24.2753C67.8504 24.1287 67.9969 23.9822 68.1435 23.8356C68.5343 23.5425 68.7785 23.2739 68.8762 23.0296C68.8762 22.9319 68.9251 22.8831 69.0227 22.8831C69.1204 22.7854 69.2426 22.7121 69.3891 22.6633C69.5357 22.5656 69.6578 22.5167 69.7555 22.5167C70.0486 22.3702 70.3417 22.3457 70.6348 22.4434C70.8302 22.4923 71.0011 22.5411 71.1477 22.59C71.3431 22.6388 71.5385 22.7365 71.7339 22.8831C71.8316 23.0785 72.0025 23.1762 72.2468 23.1762C72.6376 23.2739 72.9306 23.4204 73.126 23.6158L73.639 23.9089C73.9809 24.0066 74.2496 24.2997 74.445 24.7882C74.7869 25.4232 75.0067 26.1804 75.1044 27.0596C75.1044 27.3039 75.1044 27.5481 75.1044 27.7924C75.1044 28.0366 75.1533 28.2809 75.251 28.5251C75.2998 28.6717 75.2998 28.8182 75.251 28.9648C75.251 29.3555 75.251 29.7708 75.251 30.2104C75.2998 30.65 75.2754 31.0652 75.1777 31.456C75.1288 31.5049 75.1044 31.5782 75.1044 31.6759C75.2021 31.9201 75.2021 32.1399 75.1044 32.3353C75.0556 32.5307 75.08 32.7505 75.1777 32.9948C75.2754 33.239 75.2998 33.5077 75.251 33.8008C75.251 34.0939 75.2754 34.3625 75.3242 34.6068C75.3242 35.1441 75.3487 35.5105 75.3975 35.7059C75.4464 35.8524 75.4464 35.999 75.3975 36.1455C75.251 36.3898 75.251 36.6829 75.3975 37.0248C75.4464 37.1225 75.4708 37.3179 75.4708 37.611C75.4708 37.8552 75.5196 38.2216 75.6173 38.7101C75.6173 38.7589 75.6173 38.7833 75.6173 38.7833C75.6662 38.7833 75.6906 38.8078 75.6906 38.8566V39.0032C75.6906 39.4917 75.7883 39.9313 75.9837 40.3221C76.0814 40.4198 76.1302 40.5663 76.1302 40.7617C76.1791 40.9083 76.2279 41.0548 76.2768 41.2014C76.3745 41.8852 76.7653 42.3737 77.4492 42.6668C77.5469 42.7645 77.7178 42.8134 77.9621 42.8134C78.2552 42.8622 78.5238 42.8378 78.7681 42.7401C79.0612 42.6424 79.3543 42.5447 79.6474 42.447C79.745 42.3493 79.8672 42.276 80.0137 42.2272C80.1603 42.1783 80.2824 42.1051 80.3801 42.0074L81.4059 41.2746C81.6501 41.0304 81.87 40.8106 82.0654 40.6152C82.2608 40.3709 82.4806 40.1023 82.7248 39.8092C82.8225 39.7115 82.8958 39.6626 82.9446 39.6626C83.2866 39.3207 83.5552 38.9787 83.7506 38.6368C83.9949 38.246 84.2391 37.8552 84.4834 37.4644C84.7276 37.0736 84.923 36.7073 85.0696 36.3653C85.2161 36.0234 85.4115 35.657 85.6557 35.2662C85.7534 35.0708 85.8511 34.8754 85.9488 34.6801C86.0954 34.4358 86.2664 34.2648 86.4617 34.1671C86.4617 34.1671 86.4862 34.1916 86.535 34.2404H86.6083C86.7548 33.9473 86.9747 33.874 87.2678 34.0206C87.6097 34.1183 87.7074 34.4358 87.5608 34.9731C87.3655 35.4616 87.1212 35.9501 86.8281 36.4386C86.535 36.8782 86.3396 37.3179 86.2419 37.7575C86.1442 38.0506 86.0221 38.3193 85.8756 38.5635C85.729 38.7589 85.6069 38.9787 85.5092 39.223C85.3138 39.4672 85.0696 39.7603 84.7765 40.1023C84.5322 40.4442 84.3613 40.7373 84.2636 40.9815C84.0193 41.3235 83.8972 41.6654 83.8972 42.0074C83.8972 42.1539 83.8239 42.2272 83.6774 42.2272C83.6285 42.2272 83.6041 42.2516 83.6041 42.3005C83.4576 42.9355 83.0912 43.5949 82.505 44.2788C82.3096 44.4742 82.0898 44.6696 81.8455 44.865C81.6501 45.0116 81.4548 45.207 81.2594 45.4512C81.1617 45.5489 80.9663 45.6466 80.6732 45.7443C80.4778 45.842 80.3068 45.9153 80.1603 45.9641C80.0626 46.013 79.9404 46.0618 79.7939 46.1107C79.452 46.2084 79.11 46.3305 78.7681 46.477C78.475 46.5747 78.1575 46.648 77.8155 46.6968H77.2293C76.9851 46.648 76.7408 46.6236 76.4966 46.6236C76.2524 46.5747 76.0081 46.5014 75.7639 46.4038L75.251 46.2572C75.0067 46.0618 74.7381 45.8908 74.445 45.7443C74.2007 45.5489 73.9565 45.3291 73.7122 45.0848L73.4191 44.865C72.8818 44.3765 72.4422 43.8392 72.1002 43.253C71.7583 42.618 71.4652 41.9585 71.2209 41.2746C71.0744 40.7861 70.9278 40.3221 70.7813 39.8824C70.6348 39.4428 70.5126 38.9787 70.4149 38.4903C70.3661 38.0995 70.2928 37.7331 70.1951 37.3912C70.1463 37.0004 70.1463 36.6096 70.1951 36.2188C70.1951 35.9745 70.1707 35.8036 70.1218 35.7059C70.0241 35.4128 69.9753 35.1441 69.9753 34.8999C69.9753 34.6068 69.9753 34.3137 69.9753 34.0206C69.9753 33.5321 69.9265 33.1657 69.8288 32.9215V32.6284C69.8288 32.1888 69.8043 31.7736 69.7555 31.3828C69.7066 30.9431 69.6578 30.4791 69.6089 29.9906C69.6089 29.9417 69.5845 29.9173 69.5357 29.9173C69.5357 29.9173 69.5112 29.9417 69.4624 29.9906L68.6564 31.6026C68.2656 32.2865 67.9725 32.9703 67.7771 33.6542C67.6306 34.045 67.4596 34.4114 67.2642 34.7533C67.1176 35.0464 66.9467 35.3639 66.7513 35.7059C66.507 36.3898 66.2384 37.0492 65.9453 37.6843C65.701 38.2704 65.4812 38.9055 65.2858 39.5894C65.1881 39.8824 65.0904 40.1755 64.9927 40.4686C64.9439 40.7617 64.8706 41.0304 64.7729 41.2746L64.5531 41.9341C64.5531 42.0318 64.5287 42.1051 64.4798 42.1539C64.4798 42.2028 64.4798 42.2516 64.4798 42.3005C64.1867 42.9843 63.9181 43.6682 63.6738 44.3521C63.4296 44.9871 63.1853 45.6466 62.9411 46.3305C62.6968 46.8678 62.477 47.3563 62.2816 47.7959C62.1351 48.2356 61.9397 48.6996 61.6954 49.1881C61.5489 49.4324 61.4268 49.6766 61.3291 49.9209C61.2802 50.1163 61.2069 50.3361 61.1093 50.5803C61.0116 50.9711 60.865 51.3375 60.6696 51.6794C60.5231 52.0214 60.4009 52.3877 60.3032 52.7785L60.0834 53.0716C59.9857 53.1693 59.888 53.267 59.7903 53.3647C59.6926 53.4624 59.5949 53.5601 59.4972 53.6578L58.9111 54.3905C58.3737 55.0744 57.6898 55.4896 56.8594 55.6362C56.664 55.7339 56.4686 55.7827 56.2732 55.7827C56.0778 55.7827 55.8824 55.8071 55.687 55.856C55.2963 56.0025 54.9055 56.027 54.5147 55.9293C54.3193 55.9293 54.1727 55.9537 54.075 56.0025C53.9773 56.0025 53.8796 55.9537 53.7819 55.856C53.6842 55.8071 53.5621 55.7827 53.4156 55.7827C53.1713 55.7827 52.9515 55.7094 52.7561 55.5629C52.2676 55.3186 51.9745 54.9767 51.8768 54.5371C51.828 54.3417 51.7791 54.1707 51.7303 54.0242C51.6814 53.9265 51.6082 53.8043 51.5105 53.6578C51.4616 53.5601 51.4128 53.438 51.3639 53.2914C51.3151 53.1449 51.2907 52.9983 51.2907 52.8518C51.2418 52.5098 51.193 52.1923 51.1441 51.8992C51.0464 51.655 50.9487 51.3863 50.851 51.0932C50.7045 50.3605 50.6312 49.6278 50.6312 48.895V45.671ZM114.339 24.8615C114.583 24.9592 114.73 25.1057 114.778 25.3011C114.876 25.4965 114.974 25.7163 115.071 25.9606H114.925C114.876 25.9117 114.852 25.8873 114.852 25.8873C114.852 25.8384 114.852 25.8629 114.852 25.9606C114.754 26.3513 114.656 26.62 114.559 26.7666C114.51 26.8643 114.412 27.1085 114.265 27.4993C114.217 27.4993 114.192 27.5237 114.192 27.5726C114.192 27.6214 114.168 27.6703 114.119 27.7191C113.777 28.1099 113.557 28.4274 113.459 28.6717C113.362 28.9159 113.337 29.0869 113.386 29.1846C113.435 29.2334 113.484 29.2823 113.533 29.3311C113.63 29.3311 113.679 29.3555 113.679 29.4044C113.679 29.4532 113.606 29.5754 113.459 29.7708C113.313 30.3569 113.142 30.821 112.947 31.1629C112.702 31.5049 112.531 31.8957 112.434 32.3353C112.385 32.433 112.336 32.5551 112.287 32.7017C112.287 32.7994 112.263 32.8727 112.214 32.9215C112.067 33.1657 111.921 33.4588 111.774 33.8008C111.628 34.1427 111.457 34.4358 111.261 34.6801C111.164 35.0708 111.017 35.4372 110.822 35.7792C110.675 36.0722 110.553 36.3653 110.455 36.6584C110.211 37.1469 109.991 37.6598 109.796 38.1972C109.6 38.6857 109.381 39.1741 109.136 39.6626L108.843 40.5419C108.746 40.7373 108.623 40.9571 108.477 41.2014C108.379 41.3968 108.306 41.6166 108.257 41.8608C108.159 42.1051 108.037 42.3249 107.891 42.5203C107.793 42.6668 107.695 42.8622 107.598 43.1065C107.305 43.4973 107.06 43.9369 106.865 44.4254C106.669 44.865 106.425 45.2802 106.132 45.671C105.741 46.2084 105.131 46.6968 104.3 47.1365C104.203 47.2342 104.105 47.283 104.007 47.283C103.763 47.283 103.568 47.3563 103.421 47.5028C103.079 47.7959 102.713 47.8936 102.322 47.7959C102.224 47.8448 102.029 47.8692 101.736 47.8692H101.15C100.563 48.0646 99.9772 47.9181 99.391 47.4296C98.9025 47.0388 98.5117 46.5259 98.2186 45.8908C98.1209 45.5977 97.9988 45.3291 97.8523 45.0848C97.7057 44.7917 97.608 44.4742 97.5592 44.1323C97.5103 43.8392 97.4371 43.5461 97.3394 43.253C97.2905 42.9599 97.2661 42.6424 97.2661 42.3005C97.3638 42.0562 97.3882 41.7875 97.3394 41.4945C97.3394 41.2014 97.3394 40.9083 97.3394 40.6152H97.4126C97.4126 40.3709 97.4126 40.1023 97.4126 39.8092C97.4615 39.5161 97.4859 39.2474 97.4859 39.0032V38.2704C97.5348 37.9773 97.5592 37.7087 97.5592 37.4644C97.608 37.1713 97.6325 36.8782 97.6325 36.5852C97.6325 35.999 97.7057 35.4861 97.8523 35.0464V34.9731C97.8034 34.9243 97.7546 34.9487 97.7057 35.0464V35.193C97.4615 35.5838 97.2417 36.0478 97.0463 36.5852L96.2403 38.2704C95.996 38.6612 95.8006 39.0276 95.6541 39.3695C95.5075 39.6626 95.3366 39.9801 95.1412 40.3221L94.3352 42.1539L93.749 43.253C93.6513 43.3996 93.5536 43.5705 93.4559 43.7659C93.407 43.9125 93.3338 44.0834 93.2361 44.2788C92.9918 44.7673 92.7476 45.2314 92.5033 45.671C92.2591 46.0618 91.966 46.4526 91.6241 46.8434C91.4287 47.1853 91.16 47.5761 90.8181 48.0158C90.4761 48.4066 90.1098 48.6996 89.719 48.895C89.2793 49.1393 88.8397 49.3347 88.4 49.4812C88.0093 49.6278 87.5696 49.6766 87.0811 49.6278H85.6889C85.2493 49.5301 84.8585 49.3835 84.5166 49.1881C84.1258 48.9927 83.8083 48.7485 83.564 48.4554C83.4175 48.3577 83.2954 48.2112 83.1977 48.0158C83.0511 47.8204 82.929 47.6005 82.8313 47.3563C82.4893 46.5747 82.2695 45.842 82.1718 45.1581C82.0741 44.6696 82.0497 44.3277 82.0986 44.1323V43.253C82.0986 43.0576 82.0986 42.8622 82.0986 42.6668C82.0497 42.4226 82.0253 42.2272 82.0253 42.0806C82.0741 41.8364 82.123 41.641 82.1718 41.4945C82.1718 41.2991 82.1718 41.1281 82.1718 40.9815V39.8824C82.1718 39.8336 82.1963 39.7847 82.2451 39.7359C82.2451 39.6382 82.2451 39.5405 82.2451 39.4428L82.3917 38.7833C82.4893 38.1972 82.587 37.7087 82.6847 37.3179C82.7824 36.7805 82.929 36.2432 83.1244 35.7059C83.2709 35.1685 83.4175 34.6312 83.564 34.0939C83.6617 33.5565 83.8327 33.0436 84.0769 32.5551C84.2723 32.0666 84.4433 31.5537 84.5898 31.0164C84.9806 30.186 85.347 29.4288 85.6889 28.7449C86.0309 28.0122 86.3728 27.2306 86.7148 26.4002C86.9102 26.1071 87.1056 25.814 87.3009 25.5209C87.4963 25.2278 87.6673 24.9103 87.8139 24.5684C87.8627 24.5195 87.9116 24.4951 87.9604 24.4951C88.0093 24.4462 88.0581 24.373 88.107 24.2753C88.3512 23.9822 88.4977 23.8112 88.5466 23.7624C88.6443 23.6647 88.8153 23.4937 89.0595 23.2494C89.2549 23.1518 89.4014 23.1029 89.4991 23.1029H89.7922C89.8899 23.1029 89.9876 23.0541 90.0853 22.9564C90.183 22.8587 90.2807 22.8098 90.3784 22.8098C90.525 22.8098 90.6471 22.8098 90.7448 22.8098C91.0379 22.8587 91.3065 22.9075 91.5508 22.9564C91.795 22.9564 92.0393 22.9564 92.2835 22.9564C92.772 23.0052 93.2849 23.1762 93.8223 23.4693C94.1642 23.567 94.4573 23.7135 94.7015 23.9089C94.9458 24.1043 95.2144 24.2508 95.5075 24.3485C95.8983 24.6416 96.167 24.9836 96.3135 25.3744C96.4112 25.6186 96.4845 25.8629 96.5334 26.1071C96.5822 26.3513 96.6311 26.62 96.6799 26.9131C96.7288 27.0596 96.7288 27.2062 96.6799 27.3527C96.6799 27.4504 96.6555 27.597 96.6066 27.7924C96.4601 28.1832 96.1426 28.5495 95.6541 28.8915C95.4098 29.0869 95.2389 29.209 95.1412 29.2578C95.0435 29.2578 94.8481 29.2578 94.555 29.2578H94.1886C93.9932 29.1601 93.8223 29.1113 93.6757 29.1113C93.578 29.0624 93.5292 29.0136 93.5292 28.9648C93.5292 28.9159 93.4803 28.8426 93.3826 28.7449C93.2849 28.5984 93.1872 28.4763 93.0895 28.3786C93.0407 28.232 93.0163 28.1099 93.0163 28.0122L92.7232 27.6458C92.6255 27.4016 92.5278 27.3283 92.4301 27.426C91.9904 27.7191 91.5508 28.1343 91.1112 28.6717C91.1112 28.8182 91.0623 28.9403 90.9646 29.038C90.7692 29.3311 90.5982 29.6242 90.4517 29.9173C90.354 30.2104 90.183 30.4791 89.9388 30.7233L89.2061 32.262C89.1084 32.5063 88.9862 32.775 88.8397 33.068C88.742 33.3123 88.6443 33.5565 88.5466 33.8008L88.1802 34.5335C88.0825 34.6801 88.0093 34.8266 87.9604 34.9731C87.9116 35.0708 87.8383 35.1685 87.7406 35.2662C87.4963 35.7059 87.2521 36.3165 87.0079 37.0981L86.4949 38.4903C86.4949 38.7833 86.4461 39.0764 86.3484 39.3695C86.2996 39.6138 86.2263 39.9069 86.1286 40.2488C86.0309 40.4442 85.982 40.6152 85.982 40.7617C85.7866 41.4945 85.6645 42.2028 85.6157 42.8866C85.5668 43.5705 85.5424 44.2544 85.5424 44.9383C85.5424 45.0848 85.5424 45.207 85.5424 45.3047C85.5912 45.4024 85.6401 45.5 85.6889 45.5977C85.7378 45.842 85.7866 46.0374 85.8355 46.1839C85.9332 46.2816 86.0309 46.4526 86.1286 46.6968H86.3484C86.6415 46.5991 86.8613 46.4282 87.0079 46.1839C87.4963 45.6466 87.936 45.1093 88.3268 44.5719C88.7176 43.9857 89.1084 43.3751 89.4991 42.7401C90.0365 42.0074 90.5005 41.2258 90.8913 40.3954C91.331 39.5649 91.7462 38.7345 92.137 37.9041C92.4301 37.4156 92.6987 36.9027 92.943 36.3653C93.2361 35.828 93.5292 35.2907 93.8223 34.7533C93.9688 34.4602 94.1398 34.1671 94.3352 33.874C94.5306 33.5321 94.7015 33.239 94.8481 32.9948C95.19 32.3109 95.532 31.6514 95.8739 31.0164C96.2647 30.3814 96.6066 29.7219 96.8997 29.038C97.3394 28.3053 97.779 27.5237 98.2186 26.6933C98.414 26.3025 98.5117 26.0583 98.5117 25.9606C98.5606 25.8629 98.585 25.7896 98.585 25.7407C98.585 25.6919 98.6094 25.643 98.6583 25.5942C98.756 25.3988 98.8781 25.2278 99.0246 25.0813C99.1712 24.9347 99.2933 24.7882 99.391 24.6416C99.391 24.6416 99.4399 24.5928 99.5376 24.4951C99.5864 24.3974 99.7085 24.3485 99.9039 24.3485C100.148 24.4462 100.344 24.4951 100.49 24.4951C100.637 24.4462 100.808 24.4462 101.003 24.4951C101.247 24.4951 101.467 24.5684 101.662 24.7149C101.907 24.8615 102.151 24.9836 102.395 25.0813C102.591 25.179 102.737 25.3255 102.835 25.5209C102.981 25.6675 103.104 25.8629 103.201 26.1071C103.25 26.3513 103.299 26.5956 103.348 26.8398C103.445 27.0841 103.494 27.3283 103.494 27.5726L103.348 30.2837C103.348 30.5279 103.299 30.7722 103.201 31.0164C103.152 31.2118 103.128 31.4072 103.128 31.6026V32.262C103.128 32.6528 103.079 33.068 102.981 33.5077C102.884 33.8985 102.786 34.3137 102.688 34.7533C102.688 34.851 102.664 34.9487 102.615 35.0464C102.615 35.0953 102.615 35.1685 102.615 35.2662C102.566 35.5105 102.542 35.7791 102.542 36.0722C102.542 36.3165 102.493 36.5852 102.395 36.8782L102.175 37.7575V39.3695C102.175 39.6138 102.151 39.8092 102.102 39.9557C102.102 40.1023 102.078 40.2488 102.029 40.3954L101.882 41.0548C101.882 41.2014 101.882 41.3479 101.882 41.4945C101.931 41.641 101.931 41.812 101.882 42.0074C101.833 42.1539 101.809 42.4226 101.809 42.8134C101.809 43.1553 101.785 43.3751 101.736 43.4728C101.687 43.6682 101.687 43.8636 101.736 44.059C101.833 44.2544 101.907 44.4254 101.956 44.5719C101.956 44.6208 101.98 44.6452 102.029 44.6452C102.127 44.6452 102.175 44.6208 102.175 44.5719C102.371 44.3277 102.566 43.9857 102.762 43.5461C102.957 43.1065 103.152 42.7401 103.348 42.447L104.886 40.1023C105.082 39.7115 105.277 39.3695 105.473 39.0764C105.668 38.7345 105.839 38.3926 105.986 38.0506C106.328 37.5133 106.621 36.9759 106.865 36.4386C107.158 35.9013 107.475 35.3639 107.817 34.8266C108.159 34.2893 108.477 33.7764 108.77 33.2879C109.063 32.7994 109.332 32.2865 109.576 31.7491C109.82 31.4072 110.016 31.0652 110.162 30.7233C110.358 30.3814 110.553 30.0394 110.748 29.6975L111.701 28.0122C111.945 27.768 112.116 27.5237 112.214 27.2795C112.312 26.9864 112.458 26.7177 112.653 26.4735C112.898 26.0338 113.069 25.7163 113.166 25.5209C113.264 25.3255 113.386 25.008 113.533 24.5684C113.826 24.5195 113.997 24.5195 114.046 24.5684C114.094 24.5684 114.192 24.6661 114.339 24.8615ZM138.896 29.844C138.993 29.9417 139.091 30.0638 139.189 30.2104C139.286 30.3569 139.286 30.5523 139.189 30.7966C139.091 30.8454 139.042 30.8943 139.042 30.9431C139.042 30.9431 139.018 30.9675 138.969 31.0164C138.48 31.456 137.967 31.9201 137.43 32.4086C136.893 32.8482 136.307 33.2634 135.672 33.6542C135.427 33.7519 135.134 33.874 134.792 34.0206C134.499 34.1671 134.182 34.2893 133.84 34.387H133.766C133.62 34.387 133.522 34.4358 133.473 34.5335C133.473 34.5335 133.376 34.5824 133.18 34.6801C133.083 34.6801 133.009 34.7045 132.96 34.7533C132.96 34.7533 132.912 34.8022 132.814 34.8999C132.57 34.9976 132.35 35.0464 132.154 35.0464C131.959 35.0464 131.764 35.0708 131.568 35.1197C131.275 35.2174 130.982 35.2174 130.689 35.1197C130.542 35.0708 130.396 35.0464 130.249 35.0464C130.103 35.0464 129.932 34.9976 129.736 34.8999C129.346 34.7045 128.979 34.5091 128.637 34.3137C128.344 34.1183 128.076 33.874 127.831 33.581C127.538 33.1902 127.27 32.775 127.025 32.3353C126.781 31.8957 126.586 31.4072 126.439 30.8699C126.293 30.186 126.17 29.5021 126.073 28.8182C126.024 28.1343 126.048 27.426 126.146 26.6933C126.195 26.3513 126.244 26.0094 126.293 25.6675C126.341 25.3255 126.366 24.9836 126.366 24.6416C126.464 23.7135 126.366 23.3471 126.073 23.5425C125.828 23.7379 125.462 24.2508 124.974 25.0813L124.241 26.3269C123.899 27.0108 123.557 27.6703 123.215 28.3053C122.922 28.9403 122.653 29.5998 122.409 30.2837C122.311 30.5279 122.214 30.7477 122.116 30.9431C122.067 31.1385 121.994 31.3583 121.896 31.6026C121.798 31.798 121.725 31.9934 121.676 32.1888C121.628 32.3353 121.579 32.5307 121.53 32.775L120.87 34.6801C120.724 34.9243 120.602 35.193 120.504 35.4861C120.455 35.7792 120.382 36.0722 120.284 36.3653C120.284 36.463 120.333 36.5119 120.431 36.5119C120.431 36.6096 120.406 36.7073 120.357 36.805C120.357 36.9027 120.382 37.0004 120.431 37.0981C120.089 37.0981 119.869 37.3667 119.771 37.9041C119.674 38.1483 119.576 38.3437 119.478 38.4903C119.429 38.6368 119.38 38.8078 119.332 39.0032C119.283 39.1986 119.234 39.3695 119.185 39.5161C119.136 39.6626 119.087 39.8092 119.039 39.9557L118.526 41.7143C118.526 41.812 118.501 41.9097 118.452 42.0074C118.452 42.1051 118.452 42.2028 118.452 42.3005C118.355 42.5447 118.257 42.8378 118.159 43.1797C118.11 43.4728 118.062 43.7415 118.013 43.9857V45.4512C118.013 45.5489 117.988 45.6466 117.939 45.7443C117.939 45.7931 117.939 45.8664 117.939 45.9641C117.842 46.1107 117.793 46.2816 117.793 46.477C117.793 46.6236 117.793 46.7701 117.793 46.9167C117.793 47.3075 117.622 47.6494 117.28 47.9425L116.84 48.3821C116.743 48.7241 116.474 48.9195 116.034 48.9683L115.961 49.0416C115.766 49.0416 115.57 49.0904 115.375 49.1881C115.179 49.2858 114.984 49.3591 114.789 49.4079C114.544 49.3103 114.276 49.237 113.983 49.1881C113.69 49.1393 113.396 49.066 113.103 48.9683C113.055 48.9683 113.006 48.9683 112.957 48.9683C112.908 48.9195 112.859 48.895 112.81 48.895C112.566 48.895 112.371 48.7485 112.224 48.4554C112.029 48.0646 111.858 47.6494 111.711 47.2098C111.614 46.7701 111.565 46.3061 111.565 45.8176C111.565 45.2802 111.565 44.8162 111.565 44.4254C111.565 44.0346 111.565 43.6682 111.565 43.3263C111.565 42.9355 111.565 42.5691 111.565 42.2272C111.614 41.8364 111.638 41.3723 111.638 40.835C111.638 40.5908 111.662 40.4198 111.711 40.3221C111.809 40.0778 111.833 39.858 111.784 39.6626C111.784 39.4184 111.809 39.1741 111.858 38.9299C111.858 38.4903 111.858 38.0506 111.858 37.611C111.858 37.1225 111.907 36.6829 112.004 36.2921C112.053 36.1944 112.053 36.0722 112.004 35.9257C112.004 35.7792 112.029 35.657 112.078 35.5593C112.078 35.2174 112.078 34.8999 112.078 34.6068C112.078 34.2648 112.126 33.9229 112.224 33.581C112.273 33.4344 112.297 33.2146 112.297 32.9215L112.517 26.62V21.4909C112.517 21.1001 112.493 20.7826 112.444 20.5383C112.395 20.4406 112.371 20.3918 112.371 20.3918C112.42 20.3918 112.468 20.3185 112.517 20.172C112.859 19.5369 113.299 19.1462 113.836 18.9996C113.934 18.9996 113.983 18.9996 113.983 18.9996C114.032 18.9508 114.08 18.9263 114.129 18.9263C114.276 18.8775 114.398 18.8042 114.496 18.7065C114.642 18.6088 114.764 18.6088 114.862 18.7065C115.106 18.9508 115.375 19.0485 115.668 18.9996C115.961 18.9019 116.254 18.9508 116.547 19.1462C116.889 19.3904 117.207 19.7079 117.5 20.0987C117.793 20.4406 118.086 20.7582 118.379 21.0513C118.477 21.149 118.55 21.2711 118.599 21.4176C118.697 21.5642 118.794 21.7107 118.892 21.8573V21.9305C118.892 21.9794 118.892 22.0282 118.892 22.0771C118.941 22.0771 118.965 22.1015 118.965 22.1504C118.965 22.3946 118.99 22.761 119.039 23.2494C119.136 23.6891 119.161 24.031 119.112 24.2753C119.112 24.373 119.136 24.4462 119.185 24.4951C119.283 24.7882 119.258 25.0324 119.112 25.2278V25.8873C119.112 26.1804 119.087 26.4735 119.039 26.7666C119.039 27.0108 119.063 27.255 119.112 27.4993C119.112 27.8901 119.112 28.2809 119.112 28.6717C119.161 29.0136 119.209 29.38 119.258 29.7708C119.258 29.8685 119.258 29.9661 119.258 30.0638C119.307 30.1615 119.332 30.2592 119.332 30.3569C119.38 30.3569 119.405 30.3814 119.405 30.4302L119.551 30.2837C119.649 30.0394 119.722 29.844 119.771 29.6975C119.869 29.5021 119.967 29.3067 120.064 29.1113C120.309 28.4274 120.577 27.7924 120.87 27.2062C121.163 26.62 121.457 26.0338 121.75 25.4476C121.994 25.008 122.189 24.5928 122.336 24.202C122.531 23.8112 122.775 23.4204 123.069 23.0296C123.997 21.7596 124.827 21.1001 125.56 21.0513C126.341 20.9536 127.001 21.149 127.538 21.6374C128.076 22.0771 128.466 22.6633 128.711 23.396C128.955 24.0799 129.028 24.5684 128.93 24.8615C128.833 25.1057 128.759 25.2767 128.711 25.3744C128.662 25.4721 128.637 25.643 128.637 25.8873C128.637 26.1315 128.588 26.3758 128.491 26.62C128.442 26.8643 128.442 27.0841 128.491 27.2795C128.491 27.3772 128.466 27.4504 128.417 27.4993C128.417 27.4993 128.417 27.5481 128.417 27.6458C128.515 28.1343 128.588 28.6228 128.637 29.1113C128.686 29.5998 128.784 30.0638 128.93 30.5035C128.93 30.6012 128.93 30.6745 128.93 30.7233C128.979 30.7722 129.004 30.821 129.004 30.8699C129.15 31.2118 129.321 31.5293 129.517 31.8224C129.712 32.1155 129.981 32.3597 130.323 32.5551C130.469 32.6528 130.616 32.7261 130.762 32.775C130.909 32.8238 131.031 32.8971 131.129 32.9948C131.471 33.1413 131.91 33.1657 132.447 33.068C132.838 32.9703 133.18 32.8482 133.473 32.7017C133.815 32.5551 134.182 32.3597 134.572 32.1155C134.67 32.0178 134.768 31.9689 134.866 31.9689C135.012 31.9201 135.11 31.8468 135.159 31.7491C135.745 31.4072 136.282 31.0652 136.771 30.7233C137.259 30.3814 137.796 30.0883 138.383 29.844H138.749H138.896ZM133.927 40.6152C133.927 40.3709 133.952 40.1023 134.001 39.8092C134.001 39.5161 134.001 39.2474 134.001 39.0032C134.001 38.8078 134.025 38.6368 134.074 38.4903C134.074 38.2949 134.123 38.0995 134.22 37.9041V37.6843C134.318 36.7561 134.44 35.999 134.587 35.4128C134.733 34.8266 134.953 34.0939 135.246 33.2146L136.125 30.65C136.809 28.7938 137.664 27.0108 138.69 25.3011C139.325 24.0799 140.107 22.8587 141.035 21.6374C141.328 21.3443 141.645 21.1245 141.987 20.978H142.134H142.207C142.451 21.0268 142.622 21.0268 142.72 20.978C142.867 20.8803 143.062 20.8559 143.306 20.9047C143.453 20.9047 143.599 20.9291 143.746 20.978C143.941 20.978 144.112 20.978 144.259 20.978C144.405 21.0268 144.576 21.0513 144.772 21.0513C145.162 21.0024 145.504 21.0513 145.798 21.1978C146.139 21.2955 146.481 21.442 146.823 21.6374L147.776 22.2969C147.922 22.4434 148.069 22.7121 148.216 23.1029C148.264 23.2494 148.313 23.4204 148.362 23.6158C148.411 23.7624 148.386 23.9089 148.289 24.0555C148.191 24.2508 148.118 24.4218 148.069 24.5684C148.069 24.7149 148.069 24.8859 148.069 25.0813C148.02 25.814 147.971 26.3025 147.922 26.5467C147.922 26.791 147.8 27.255 147.556 27.9389C147.507 28.2809 147.385 28.6228 147.19 28.9648C147.092 29.1601 146.97 29.3555 146.823 29.5509C146.726 29.7463 146.628 29.9417 146.53 30.1371C146.286 30.6256 146.042 31.1141 145.798 31.6026C145.602 32.0422 145.358 32.4819 145.065 32.9215C144.723 33.4588 144.381 33.9962 144.039 34.5335C143.697 35.022 143.331 35.5105 142.94 35.999C142.891 36.0967 142.72 36.2676 142.427 36.5119C142.28 36.6584 142.109 36.805 141.914 36.9515C141.767 37.0492 141.621 37.2202 141.474 37.4644C141.279 37.611 141.059 37.7575 140.815 37.9041C140.62 38.0506 140.4 38.1239 140.155 38.1239C139.765 38.1239 139.545 38.2704 139.496 38.5635C139.496 38.6124 139.447 38.6857 139.349 38.7833C139.301 39.0276 139.227 39.2718 139.13 39.5161C139.081 39.7115 139.032 39.9313 138.983 40.1755V41.4212C138.983 41.5189 138.959 41.6166 138.91 41.7143C138.91 41.812 138.91 41.9097 138.91 42.0074C138.812 42.3005 138.763 42.5935 138.763 42.8866C138.763 43.0332 138.788 43.1797 138.837 43.3263C138.885 43.424 138.885 43.5461 138.837 43.6926C138.885 43.9857 138.934 44.2788 138.983 44.5719C139.081 44.865 139.154 45.1337 139.203 45.3779C139.252 45.6222 139.349 45.842 139.496 46.0374C139.643 46.1839 139.765 46.3549 139.862 46.5503C139.911 46.648 140.033 46.6968 140.229 46.6968C140.375 46.7457 140.522 46.7701 140.668 46.7701C140.815 46.7213 140.961 46.6968 141.108 46.6968C141.303 46.5991 141.474 46.5014 141.621 46.4038C141.816 46.3061 141.987 46.2084 142.134 46.1107C142.525 45.8664 142.891 45.6466 143.233 45.4512C143.624 45.207 143.966 44.9139 144.259 44.5719C144.503 44.3277 144.747 44.1079 144.992 43.9125C145.285 43.6682 145.602 43.424 145.944 43.1797L147.41 41.641C147.996 40.9571 148.557 40.2732 149.095 39.5894C149.681 38.9055 150.243 38.2216 150.78 37.5377C152.148 35.8768 153.32 34.2404 154.297 32.6284C154.688 31.9445 155.054 31.2851 155.396 30.65C155.787 30.015 156.153 29.3555 156.495 28.6717C156.691 28.2809 156.886 27.9389 157.082 27.6458C157.277 27.3527 157.521 27.0352 157.814 26.6933C157.912 26.5956 157.912 26.5712 157.814 26.62C157.765 26.6689 157.79 26.6444 157.888 26.5467C157.936 26.4979 158.01 26.4979 158.107 26.5467C158.156 26.5467 158.181 26.5956 158.181 26.6933C158.181 26.791 158.205 26.8398 158.254 26.8398C158.303 26.8398 158.327 26.8887 158.327 26.9864C158.327 27.0841 158.352 27.1573 158.4 27.2062C158.449 27.255 158.474 27.3283 158.474 27.426C158.425 27.6214 158.376 27.8412 158.327 28.0855C158.278 28.2809 158.205 28.4518 158.107 28.5984V28.8182C158.107 28.9159 158.205 28.9648 158.4 28.9648C158.547 29.0136 158.62 29.1113 158.62 29.2578C158.62 29.6486 158.571 30.015 158.474 30.3569C158.376 30.65 158.254 30.9675 158.107 31.3095C157.814 31.7003 157.643 32.1155 157.594 32.5551C157.35 33.0436 157.106 33.5077 156.862 33.9473C156.666 34.3381 156.447 34.7778 156.202 35.2662C156.056 35.5593 155.885 35.828 155.689 36.0722C155.543 36.3165 155.372 36.6096 155.176 36.9515C155.079 37.0981 154.981 37.2446 154.883 37.3912C154.835 37.4889 154.786 37.6354 154.737 37.8308C154.688 38.0262 154.541 38.2704 154.297 38.5635C154.053 38.9543 153.784 39.3207 153.491 39.6626C153.247 39.9557 152.978 40.2977 152.685 40.6884L152.539 41.0548C152.197 41.5433 151.855 42.0074 151.513 42.447C151.171 42.8378 150.756 43.2286 150.267 43.6194C150.121 43.7659 149.974 43.9613 149.828 44.2056C149.73 44.401 149.608 44.5475 149.461 44.6452C148.973 45.0848 148.509 45.5489 148.069 46.0374C147.678 46.477 147.214 46.8922 146.677 47.283C146.237 47.6738 145.749 48.0158 145.211 48.3089C144.723 48.5531 144.21 48.7973 143.673 49.0416C143.086 49.3835 142.403 49.6278 141.621 49.7743C141.279 49.7743 141.035 49.8232 140.888 49.9209C140.449 49.9697 140.058 49.9697 139.716 49.9209C138.592 49.9209 137.566 49.5301 136.638 48.7485C136.394 48.4554 136.15 48.1623 135.906 47.8692C135.661 47.5761 135.417 47.283 135.173 46.9899C134.684 46.3061 134.318 45.4756 134.074 44.4987C133.976 44.059 133.903 43.5949 133.854 43.1065C133.805 42.618 133.781 42.1295 133.781 41.641C133.878 41.3968 133.927 41.0548 133.927 40.6152ZM144.772 25.5209C144.821 25.2278 144.723 24.9103 144.479 24.5684C144.283 24.373 144.137 24.373 144.039 24.5684C144.039 24.6661 144.015 24.7393 143.966 24.7882C143.917 24.7882 143.868 24.837 143.819 24.9347C143.624 25.2278 143.428 25.5453 143.233 25.8873C143.038 26.2292 142.867 26.5956 142.72 26.9864C142.476 27.3283 142.28 27.6947 142.134 28.0855C141.987 28.4763 141.865 28.8671 141.767 29.2578L141.401 29.9906L140.375 32.6284V32.8482C140.278 33.1902 140.155 33.5321 140.009 33.874C139.911 34.216 139.789 34.5824 139.643 34.9731V35.4128H139.716L140.155 35.1197C140.302 34.8754 140.473 34.6556 140.668 34.4602C140.864 34.216 141.01 33.9717 141.108 33.7275C141.645 33.0436 142.109 32.3353 142.5 31.6026C142.94 30.8699 143.331 30.0883 143.673 29.2578L144.552 27.0596C144.601 26.8154 144.625 26.5712 144.625 26.3269C144.625 26.0338 144.674 25.7652 144.772 25.5209ZM182.606 28.4518C182.459 28.5495 182.288 28.6717 182.093 28.8182C181.946 28.9159 181.8 29.0136 181.653 29.1113C181.262 29.3555 180.896 29.5998 180.554 29.844C180.261 30.0883 179.919 30.3325 179.528 30.5768L179.309 30.7966C178.82 31.2851 178.332 31.7491 177.843 32.1888C177.355 32.6284 176.842 33.0925 176.304 33.581C176.06 33.8252 175.865 34.0694 175.718 34.3137C175.572 34.5091 175.449 34.7533 175.352 35.0464C175.303 35.193 175.327 35.3151 175.425 35.4128C175.62 35.6082 175.743 35.7059 175.791 35.7059L176.451 36.5119C176.695 36.805 176.866 37.1225 176.964 37.4644C177.061 37.8064 177.135 38.1727 177.184 38.5635V39.8092L177.037 40.6152C176.939 41.1525 176.793 41.641 176.597 42.0806C176.402 42.5203 176.158 42.9599 175.865 43.3996C175.816 43.6926 175.645 44.0102 175.352 44.3521C175.254 44.4498 175.181 44.5475 175.132 44.6452C175.132 44.694 175.108 44.7673 175.059 44.865C175.01 44.9627 174.937 45.0604 174.839 45.1581C174.79 45.2558 174.741 45.3535 174.692 45.4512C174.595 45.842 174.424 46.1839 174.179 46.477C173.935 46.7701 173.715 47.0876 173.52 47.4296C173.325 47.7715 173.105 48.089 172.86 48.3821C172.665 48.6752 172.47 48.9683 172.274 49.2614C172.079 49.4568 171.957 49.5545 171.908 49.5545L171.175 50.5803C171.077 50.7269 170.955 50.8734 170.809 51.02C170.711 51.1665 170.613 51.3131 170.516 51.4596C170.418 51.5573 170.296 51.6794 170.149 51.826C170.052 51.9725 169.954 52.0946 169.856 52.1923C169.71 52.4366 169.514 52.632 169.27 52.7785C168.977 52.9251 168.708 53.1205 168.464 53.3647C168.22 53.6089 167.976 53.8532 167.731 54.0974C167.389 54.3905 167.047 54.6592 166.706 54.9034C166.412 55.1965 166.071 55.4408 165.68 55.6362C165.094 56.0758 164.458 56.3689 163.775 56.5154C163.677 56.5154 163.579 56.5399 163.482 56.5887C163.384 56.6376 163.286 56.6864 163.188 56.7353C162.895 56.833 162.627 56.9062 162.382 56.9551C162.138 57.0039 161.894 57.0284 161.65 57.0284C161.552 57.0284 161.479 57.0284 161.43 57.0284C161.43 57.0772 161.381 57.1016 161.283 57.1016C160.99 57.1993 160.673 57.2482 160.331 57.2482C160.038 57.2482 159.72 57.2237 159.378 57.1749C158.987 57.1749 158.694 57.0528 158.499 56.8085H158.206C157.864 56.7108 157.669 56.5154 157.62 56.2223C157.473 55.8804 157.449 55.4652 157.546 54.9767C157.644 54.6348 157.742 54.1707 157.839 53.5845C157.986 52.7541 158.157 52.0702 158.352 51.5329C158.548 50.9467 158.768 50.4093 159.012 49.9209C159.256 49.3835 159.5 48.8462 159.745 48.3089C159.891 47.9181 160.062 47.5517 160.258 47.2098C160.502 46.8678 160.722 46.5259 160.917 46.1839C161.259 45.5977 161.601 45.0604 161.943 44.5719C162.334 44.0346 162.724 43.4973 163.115 42.9599C163.897 41.9341 164.776 40.9083 165.753 39.8824L167.292 38.0506L168.977 36.4386C169.172 36.2432 169.246 36.1455 169.197 36.1455C169.148 36.0967 169.001 36.0234 168.757 35.9257C167.878 35.6326 166.95 35.4861 165.973 35.4861C165.582 35.4861 165.191 35.4861 164.8 35.4861C164.41 35.4861 163.994 35.5349 163.555 35.6326C162.822 35.7303 162.138 35.7059 161.503 35.5593C161.21 35.4616 160.893 35.4128 160.551 35.4128C160.258 35.3639 159.94 35.3151 159.598 35.2662C159.256 35.2174 158.914 35.1685 158.572 35.1197C158.23 35.0708 157.888 34.9976 157.546 34.8999C156.716 34.6556 155.983 34.1916 155.348 33.5077C155.348 33.4588 155.299 33.3367 155.202 33.1413C155.104 32.8971 154.982 32.6773 154.835 32.4819C154.689 32.2376 154.567 31.9934 154.469 31.7491C154.225 31.1629 154.078 30.5768 154.029 29.9906C154.029 28.8182 154.298 27.6214 154.835 26.4002C155.226 25.5698 155.568 24.8615 155.861 24.2753C156.203 23.6891 156.667 23.0296 157.253 22.2969C157.986 21.3199 158.67 20.5139 159.305 19.8789L161.064 17.9005C161.357 17.7051 161.552 17.5586 161.65 17.4609C161.796 17.3143 161.918 17.1922 162.016 17.0945C162.163 16.9968 162.309 16.8991 162.456 16.8014C162.651 16.7037 162.92 16.5327 163.262 16.2885C163.359 16.2397 163.457 16.1908 163.555 16.142C163.652 16.0931 163.75 16.0687 163.848 16.0687C164.092 16.0687 164.336 16.0443 164.581 15.9954C164.825 15.9466 165.069 15.8977 165.313 15.8489C165.46 15.8 165.631 15.8244 165.826 15.9221C166.852 16.4106 167.683 17.0701 168.318 17.9005C168.464 18.1448 168.537 18.3646 168.537 18.56C168.537 18.7065 168.537 18.8286 168.537 18.9263C168.586 19.024 168.611 19.1217 168.611 19.2194C168.659 19.5614 168.537 19.9277 168.244 20.3185C168.147 20.4162 168.024 20.5383 167.878 20.6849C167.78 20.7826 167.634 20.8803 167.438 20.978C167.194 21.1245 166.925 21.2955 166.632 21.4909C166.339 21.6863 166.046 21.8573 165.753 22.0038C165.655 22.0527 165.582 22.1015 165.533 22.1504C165.533 22.1992 165.484 22.2725 165.387 22.3702C165.094 22.6144 164.874 22.7854 164.727 22.8831C164.581 22.9319 164.458 23.0052 164.361 23.1029C164.263 23.2006 164.165 23.3227 164.068 23.4693C163.97 23.6158 163.799 23.8356 163.555 24.1287C163.164 24.6172 162.798 25.0813 162.456 25.5209C162.114 25.9117 161.772 26.3758 161.43 26.9131C160.893 27.8412 160.526 28.7205 160.331 29.5509C160.282 29.6486 160.233 29.7708 160.184 29.9173C160.184 30.0638 160.135 30.186 160.038 30.2837C159.989 30.5279 159.964 30.8943 159.964 31.3828C159.964 31.5782 160.038 31.6759 160.184 31.6759C160.428 31.7247 160.697 31.7736 160.99 31.8224C161.283 31.8713 161.601 31.8713 161.943 31.8224H166.046C166.339 31.8224 166.632 31.8468 166.925 31.8957C167.218 31.8957 167.536 31.9445 167.878 32.0422H168.024C168.366 32.0422 168.684 32.0911 168.977 32.1888C169.27 32.2376 169.588 32.3109 169.93 32.4086C170.613 32.5063 171.248 32.7261 171.835 33.068C172.177 33.1169 172.445 33.0925 172.641 32.9948C173.715 32.0666 174.814 31.1874 175.938 30.3569C176.524 29.9661 177.11 29.5754 177.697 29.1846C178.283 28.7938 178.893 28.403 179.528 28.0122C180.701 27.1818 181.971 26.4735 183.339 25.8873C183.827 25.6919 184.12 25.5698 184.218 25.5209C184.316 25.4232 184.389 25.3744 184.438 25.3744C184.486 25.3744 184.56 25.3744 184.657 25.3744C184.804 25.3744 185.146 25.3011 185.683 25.1545H185.976C186.074 25.1545 186.123 25.2034 186.123 25.3011C186.123 25.3499 186.025 25.5209 185.83 25.814L185.976 25.5209C185.879 25.5698 185.83 25.6186 185.83 25.6675C185.879 25.6675 185.854 25.6919 185.757 25.7407C185.757 25.8873 185.732 26.0094 185.683 26.1071L185.757 26.0338L185.683 26.1071C185.586 26.4002 185.366 26.5956 185.024 26.6933C184.975 26.7421 184.902 26.791 184.804 26.8398C184.755 26.8398 184.682 26.8887 184.584 26.9864C184.34 27.0841 184.193 27.1573 184.145 27.2062C184.145 27.2062 184.022 27.2795 183.778 27.426C183.485 27.6214 183.265 27.7435 183.119 27.7924V27.8657C183.119 27.9145 183.094 27.9634 183.045 28.0122C183.045 28.1099 182.972 28.1587 182.826 28.1587L182.606 28.4518ZM160.551 54.1707C160.551 54.2684 160.624 54.3172 160.77 54.3172C160.966 54.3172 161.112 54.2928 161.21 54.244C161.357 54.1951 161.503 54.1463 161.65 54.0974C161.894 53.902 162.138 53.7311 162.382 53.5845C162.676 53.4868 162.969 53.3647 163.262 53.2182C163.506 53.0716 163.701 52.9251 163.848 52.7785C164.043 52.6808 164.239 52.5343 164.434 52.3389C164.629 52.1923 164.825 52.0214 165.02 51.826C165.216 51.6306 165.411 51.4352 165.606 51.2398C166.241 50.6536 166.828 50.043 167.365 49.4079C167.951 48.7241 168.513 48.0158 169.05 47.283C169.49 46.6968 169.905 46.0862 170.296 45.4512C170.736 44.8162 171.102 44.1323 171.395 43.3996C171.493 43.1553 171.59 42.9355 171.688 42.7401C171.786 42.4959 171.884 42.2516 171.981 42.0074C172.079 41.7143 172.152 41.4212 172.201 41.1281C172.25 40.835 172.323 40.5419 172.421 40.2488C172.519 39.2718 172.299 38.4658 171.761 37.8308C171.615 37.7331 171.493 37.7331 171.395 37.8308C171.395 37.8308 171.346 37.8796 171.248 37.9773C171.151 38.1239 171.053 38.246 170.955 38.3437C170.858 38.4414 170.76 38.5391 170.662 38.6368L170.223 39.1497C170.027 39.394 169.832 39.6382 169.636 39.8824C169.441 40.0778 169.246 40.2977 169.05 40.5419C168.708 40.8838 168.489 41.1525 168.391 41.3479C168.147 41.5922 167.927 41.8364 167.731 42.0806C167.585 42.276 167.414 42.4959 167.218 42.7401L165.753 44.5719C165.216 45.2558 164.703 45.9641 164.214 46.6968C163.775 47.3807 163.311 48.089 162.822 48.8218C162.48 49.3591 162.163 49.8964 161.87 50.4338C161.625 50.9711 161.381 51.5329 161.137 52.1191C160.941 52.4121 160.77 52.8518 160.624 53.438C160.575 53.5357 160.551 53.7066 160.551 53.9509V54.1707ZM182.826 28.1587C182.826 28.1099 182.801 28.0855 182.752 28.0855L182.826 28.1587ZM185.757 26.0338C185.757 25.985 185.757 25.9606 185.757 25.9606C185.805 25.9117 185.83 25.8629 185.83 25.814C185.83 25.8629 185.805 25.9117 185.757 25.9606C185.757 25.9606 185.757 25.985 185.757 26.0338Z" fill="#246F74"/>
</svg>
