<svg width="117" height="49" viewBox="0 0 117 49" fill="none" xmlns="http://www.w3.org/2000/svg">
<rect x="0.432373" y="0.664062" width="116.185" height="47.9439" rx="3.99172" fill="white"/>
<rect x="9.08911" y="13.0249" width="21.8114" height="23.2228" rx="4.39089" fill="#F18310"/>
<path d="M45.0659 19.4035L47.7858 27.6296H47.8929L50.6078 19.4035H52.6898L49.0054 29.8545H46.6682L42.9889 19.4035H45.0659ZM56.6128 30.0076C55.8269 30.0076 55.1482 29.8443 54.5767 29.5177C54.0085 29.1877 53.5714 28.7216 53.2652 28.1195C52.959 27.5139 52.8059 26.8012 52.8059 25.9813C52.8059 25.175 52.959 24.4674 53.2652 23.8584C53.5748 23.246 54.0068 22.7698 54.5614 22.4296C55.1159 22.086 55.7674 21.9142 56.5158 21.9142C56.9989 21.9142 57.4548 21.9924 57.8834 22.1489C58.3155 22.302 58.6965 22.5401 59.0265 22.8633C59.3599 23.1865 59.6219 23.5982 59.8124 24.0983C60.0029 24.595 60.0982 25.1869 60.0982 25.8741V26.4406H53.6734V25.1954H58.3274C58.324 24.8416 58.2475 24.5269 58.0978 24.2513C57.9481 23.9724 57.7389 23.7529 57.4701 23.5931C57.2047 23.4332 56.8951 23.3532 56.5413 23.3532C56.1637 23.3532 55.832 23.4451 55.5462 23.6288C55.2605 23.8091 55.0376 24.0472 54.8777 24.3432C54.7212 24.6358 54.6413 24.9573 54.6379 25.3077V26.3946C54.6379 26.8505 54.7212 27.2417 54.8879 27.5683C55.0546 27.8915 55.2877 28.1399 55.5871 28.3134C55.8864 28.4835 56.2369 28.5685 56.6383 28.5685C56.9071 28.5685 57.1503 28.5311 57.368 28.4563C57.5858 28.378 57.7746 28.264 57.9345 28.1144C58.0944 27.9647 58.2151 27.7793 58.2968 27.5581L60.0216 27.752C59.9127 28.2079 59.7052 28.6059 59.399 28.9461C59.0963 29.283 58.7084 29.5449 58.2355 29.732C57.7627 29.9157 57.2217 30.0076 56.6128 30.0076ZM63.5083 25.2618V29.8545H61.661V22.0162H63.4266V23.3481H63.5185C63.6988 22.9092 63.9863 22.5605 64.3809 22.302C64.7789 22.0434 65.2705 21.9142 65.8557 21.9142C66.3966 21.9142 66.8678 22.0298 67.2692 22.2612C67.6741 22.4925 67.987 22.8276 68.2082 23.2665C68.4327 23.7053 68.5433 24.2377 68.5399 24.8637V29.8545H66.6926V25.1495C66.6926 24.6256 66.5565 24.2156 66.2843 23.9196C66.0156 23.6237 65.643 23.4757 65.1668 23.4757C64.8436 23.4757 64.5561 23.5471 64.3043 23.69C64.056 23.8295 63.8604 24.0319 63.7175 24.2973C63.578 24.5626 63.5083 24.8841 63.5083 25.2618ZM73.3265 29.9923C72.7108 29.9923 72.1596 29.8341 71.6731 29.5177C71.1867 29.2013 70.8022 28.742 70.5199 28.1399C70.2375 27.5377 70.0963 26.8063 70.0963 25.9456C70.0963 25.0746 70.2392 24.3398 70.525 23.741C70.8141 23.1389 71.2037 22.6847 71.6936 22.3785C72.1834 22.0689 72.7295 21.9142 73.3316 21.9142C73.7909 21.9142 74.1685 21.9924 74.4645 22.1489C74.7605 22.302 74.9952 22.4874 75.1687 22.7051C75.3422 22.9195 75.4766 23.1219 75.5719 23.3124H75.6484V19.4035H77.5008V29.8545H75.6841V28.6196H75.5719C75.4766 28.8101 75.3388 29.0125 75.1585 29.2268C74.9782 29.4377 74.7401 29.6181 74.4441 29.7677C74.1481 29.9174 73.7756 29.9923 73.3265 29.9923ZM73.8419 28.4767C74.2332 28.4767 74.5666 28.3712 74.8421 28.1603C75.1177 27.946 75.3269 27.6483 75.4698 27.2672C75.6127 26.8862 75.6841 26.4423 75.6841 25.9354C75.6841 25.4284 75.6127 24.9879 75.4698 24.6137C75.3303 24.2394 75.1228 23.9486 74.8472 23.741C74.5751 23.5335 74.24 23.4298 73.8419 23.4298C73.4303 23.4298 73.0867 23.5369 72.8111 23.7512C72.5356 23.9656 72.328 24.2616 72.1886 24.6392C72.0491 25.0168 71.9793 25.4489 71.9793 25.9354C71.9793 26.4252 72.0491 26.8624 72.1886 27.2468C72.3314 27.6279 72.5407 27.9289 72.8162 28.1501C73.0952 28.3678 73.4371 28.4767 73.8419 28.4767ZM79.4693 29.8545V22.0162H81.3166V29.8545H79.4693ZM80.3981 20.9037C80.1055 20.9037 79.8538 20.8068 79.6428 20.6129C79.4319 20.4156 79.3264 20.1791 79.3264 19.9036C79.3264 19.6246 79.4319 19.3881 79.6428 19.1942C79.8538 18.9969 80.1055 18.8983 80.3981 18.8983C80.6941 18.8983 80.9458 18.9969 81.1533 19.1942C81.3643 19.3881 81.4697 19.6246 81.4697 19.9036C81.4697 20.1791 81.3643 20.4156 81.1533 20.6129C80.9458 20.8068 80.6941 20.9037 80.3981 20.9037ZM86.125 29.9923C85.5092 29.9923 84.9581 29.8341 84.4716 29.5177C83.9851 29.2013 83.6007 28.742 83.3183 28.1399C83.0359 27.5377 82.8947 26.8063 82.8947 25.9456C82.8947 25.0746 83.0376 24.3398 83.3234 23.741C83.6126 23.1389 84.0021 22.6847 84.492 22.3785C84.9819 22.0689 85.5279 21.9142 86.1301 21.9142C86.5893 21.9142 86.967 21.9924 87.2629 22.1489C87.5589 22.302 87.7937 22.4874 87.9672 22.7051C88.1407 22.9195 88.2751 23.1219 88.3703 23.3124H88.4469V19.4035H90.2993V29.8545H88.4826V28.6196H88.3703C88.2751 28.8101 88.1373 29.0125 87.957 29.2268C87.7767 29.4377 87.5385 29.6181 87.2425 29.7677C86.9466 29.9174 86.574 29.9923 86.125 29.9923ZM86.6404 28.4767C87.0316 28.4767 87.365 28.3712 87.6406 28.1603C87.9161 27.946 88.1254 27.6483 88.2682 27.2672C88.4111 26.8862 88.4826 26.4423 88.4826 25.9354C88.4826 25.4284 88.4111 24.9879 88.2682 24.6137C88.1288 24.2394 87.9212 23.9486 87.6457 23.741C87.3735 23.5335 87.0384 23.4298 86.6404 23.4298C86.2287 23.4298 85.8851 23.5369 85.6096 23.7512C85.334 23.9656 85.1265 24.2616 84.987 24.6392C84.8475 25.0168 84.7778 25.4489 84.7778 25.9354C84.7778 26.4252 84.8475 26.8624 84.987 27.2468C85.1299 27.6279 85.3391 27.9289 85.6147 28.1501C85.8936 28.3678 86.2355 28.4767 86.6404 28.4767ZM95.6868 30.0076C94.9213 30.0076 94.258 29.8392 93.6966 29.5024C93.1353 29.1656 92.6998 28.6944 92.3902 28.0888C92.0841 27.4833 91.931 26.7757 91.931 25.966C91.931 25.1563 92.0841 24.447 92.3902 23.838C92.6998 23.229 93.1353 22.7562 93.6966 22.4194C94.258 22.0826 94.9213 21.9142 95.6868 21.9142C96.4523 21.9142 97.1157 22.0826 97.677 22.4194C98.2383 22.7562 98.6721 23.229 98.9783 23.838C99.2879 24.447 99.4426 25.1563 99.4426 25.966C99.4426 26.7757 99.2879 27.4833 98.9783 28.0888C98.6721 28.6944 98.2383 29.1656 97.677 29.5024C97.1157 29.8392 96.4523 30.0076 95.6868 30.0076ZM95.697 28.5277C96.1121 28.5277 96.4591 28.4137 96.738 28.1858C97.017 27.9545 97.2245 27.6449 97.3606 27.257C97.5001 26.8692 97.5698 26.4372 97.5698 25.9609C97.5698 25.4812 97.5001 25.0474 97.3606 24.6596C97.2245 24.2684 97.017 23.9571 96.738 23.7257C96.4591 23.4944 96.1121 23.3787 95.697 23.3787C95.2718 23.3787 94.9179 23.4944 94.6356 23.7257C94.3566 23.9571 94.1474 24.2684 94.0079 24.6596C93.8718 25.0474 93.8038 25.4812 93.8038 25.9609C93.8038 26.4372 93.8718 26.8692 94.0079 27.257C94.1474 27.6449 94.3566 27.9545 94.6356 28.1858C94.9179 28.4137 95.2718 28.5277 95.697 28.5277ZM107.206 24.088L105.522 24.2718C105.474 24.1017 105.391 23.9418 105.272 23.7921C105.156 23.6424 104.999 23.5216 104.802 23.4298C104.605 23.3379 104.363 23.292 104.077 23.292C103.693 23.292 103.37 23.3753 103.108 23.542C102.849 23.7087 102.722 23.9248 102.725 24.1901C102.722 24.418 102.805 24.6035 102.975 24.7463C103.149 24.8892 103.435 25.0066 103.833 25.0985L105.17 25.3842C105.911 25.5441 106.462 25.7976 106.823 26.1446C107.187 26.4916 107.371 26.9458 107.374 27.5071C107.371 28.0004 107.226 28.4358 106.94 28.8135C106.658 29.1877 106.265 29.4803 105.761 29.6912C105.258 29.9021 104.68 30.0076 104.026 30.0076C103.067 30.0076 102.295 29.8069 101.71 29.4054C101.125 29.0006 100.776 28.4375 100.664 27.7163L102.465 27.5428C102.547 27.8966 102.72 28.1637 102.985 28.344C103.251 28.5243 103.596 28.6145 104.021 28.6145C104.46 28.6145 104.812 28.5243 105.078 28.344C105.346 28.1637 105.481 27.9408 105.481 27.6755C105.481 27.451 105.394 27.2655 105.221 27.1193C105.05 26.973 104.785 26.8607 104.424 26.7825L103.087 26.5018C102.336 26.3453 101.779 26.0816 101.419 25.7108C101.058 25.3366 100.88 24.8637 100.883 24.2922C100.88 23.8091 101.011 23.3906 101.276 23.0368C101.545 22.6796 101.917 22.404 102.393 22.2101C102.873 22.0128 103.426 21.9142 104.052 21.9142C104.971 21.9142 105.693 22.1098 106.221 22.501C106.751 22.8922 107.08 23.4213 107.206 24.088Z" fill="#3D4043"/>
</svg>
